<?xml version="1.0" encoding="UTF-8" standalone="no"?>
<svg
   version="1.1"
   width="240.34688"
   height="315.66248"
   id="svg925"
   sodipodi:docname="adls_save.svg"
   inkscape:version="1.1.2 (0a00cf5339, 2022-02-04)"
   xmlns:inkscape="http://www.inkscape.org/namespaces/inkscape"
   xmlns:sodipodi="http://sodipodi.sourceforge.net/DTD/sodipodi-0.dtd"
   xmlns="http://www.w3.org/2000/svg"
   xmlns:svg="http://www.w3.org/2000/svg">
  <defs
     id="defs929" />
  <sodipodi:namedview
     id="namedview927"
     pagecolor="#ffffff"
     bordercolor="#666666"
     borderopacity="1.0"
     inkscape:pageshadow="2"
     inkscape:pageopacity="0.0"
     inkscape:pagecheckerboard="0"
     showgrid="false"
     inkscape:zoom="1.6883333"
     inkscape:cx="116.38697"
     inkscape:cy="157.55183"
     inkscape:window-width="1920"
     inkscape:window-height="1022"
     inkscape:window-x="0"
     inkscape:window-y="0"
     inkscape:window-maximized="1"
     inkscape:current-layer="svg925" />
  <path
     d="M 119.01747,0.00204468 C 119.9934,0.00136994 120.96933,6.9519e-4 121.97484,0 c 35.59393,0.03899128 84.90719,2.3842034 111.98013,29.252045 5.68539,7.106733 6.14911,13.521471 6.14044,22.355057 0.003,0.946012 0.006,1.892023 0.009,2.866702 0.009,3.171939 0.0102,6.34384 0.0117,9.51579 0.005,2.273443 0.01,4.546886 0.0151,6.820328 0.0131,6.177729 0.0196,12.355448 0.024,18.53319 0.003,3.859347 0.007,7.718691 0.0115,11.578028 0.0121,10.6914 0.0225,21.38279 0.0259,32.07419 3.3e-4,1.0257 3.3e-4,1.0257 6.6e-4,2.07212 2.2e-4,0.6854 4.4e-4,1.3708 6.6e-4,2.07698 4.5e-4,1.38881 8.9e-4,2.77763 0.001,4.16645 3.4e-4,1.03334 3.4e-4,1.03334 6.8e-4,2.08756 0.004,11.162 0.0214,22.32394 0.0447,33.48591 0.0237,11.46757 0.0359,22.93509 0.0374,34.40269 10e-4,6.43555 0.007,12.87101 0.0248,19.30653 0.0165,6.05336 0.0186,12.10656 0.01,18.15994 -7.7e-4,2.22037 0.004,4.44074 0.0135,6.66108 0.0127,3.03401 0.007,6.06744 -0.004,9.10144 0.0121,1.31398 0.0121,1.31398 0.0244,2.65451 -0.0678,8.44533 -2.43532,14.9048 -8.25128,21.13619 -13.56742,12.32994 -32.58855,17.63062 -50.07766,21.57031 -0.83692,0.194 -1.67385,0.38801 -2.53613,0.58789 -18.40264,3.95828 -36.97078,5.28967 -55.75317,5.17822 -3.20674,-0.0161 -6.41221,-2e-5 -9.6189,0.019 -33.89852,0.0352 -81.25455,-3.29325 -107.1542972,-28.41016 -5.25714,-6.18823 -6.87884003,-11.12399 -6.74171003,-19.15324 -0.0109,-1.47527 -0.0109,-1.47527 -0.022,-2.98033 -0.0168,-3.27535 0.009,-6.54892 0.0349,-9.82419 -0.003,-2.3561 -0.009,-4.7122 -0.0173,-7.06829 -0.0145,-6.3842 0.008,-12.76776 0.0389,-19.15189 0.0237,-6.00581 0.0215,-12.01159 0.0202,-18.01744 -0.001,-11.89779 0.0259,-23.79534 0.0696,-35.69305 0.0423,-11.53813 0.0635,-23.07605 0.0615,-34.61426 -1.2e-4,-0.71112 -2.4e-4,-1.42224 -3.6e-4,-2.15491 -1.2e-4,-0.70991 -2.4e-4,-1.41982 -3.7e-4,-2.15124 -0.002,-12.48292 0.0134,-24.96576 0.0384,-37.448657 0.0106,-5.312068 0.0161,-10.624105 0.0177,-15.936184 0.003,-6.252086 0.0213,-12.503949 0.0515,-18.755962 0.009,-2.295367 0.0125,-4.590761 0.0107,-6.886145 -0.001,-3.130876 0.0155,-6.261125 0.0372,-9.391914 -0.005,-0.910211 -0.009,-1.820423 -0.0141,-2.758216 C 0.62053277,38.225617 2.5356028,33.199205 7.2752628,27.814495 34.853064,2.1607975 83.679657,0.02402209 119.01747,0.00204468 Z"
     fill="#59b3d8"
     id="path911" />
  <path
     d="M 119.01747,0.00204468 C 119.9934,0.00136994 120.96933,6.9519e-4 121.97484,0 c 35.59393,0.03899128 84.90719,2.3842034 111.98013,29.252045 5.68539,7.106733 6.14911,13.521471 6.14044,22.355057 0.003,0.946012 0.006,1.892023 0.009,2.866702 0.009,3.171939 0.0102,6.34384 0.0117,9.51579 0.005,2.273443 0.01,4.546886 0.0151,6.820328 0.0131,6.177729 0.0196,12.355448 0.024,18.53319 0.003,3.859347 0.007,7.718691 0.0115,11.578028 0.0121,10.6914 0.0225,21.38279 0.0259,32.07419 3.3e-4,1.0257 3.3e-4,1.0257 6.6e-4,2.07212 2.2e-4,0.6854 4.4e-4,1.3708 6.6e-4,2.07698 4.5e-4,1.38881 8.9e-4,2.77763 0.001,4.16645 3.4e-4,1.03334 3.4e-4,1.03334 6.8e-4,2.08756 0.004,11.162 0.0214,22.32394 0.0447,33.48591 0.0237,11.46757 0.0359,22.93509 0.0374,34.40269 10e-4,6.43555 0.007,12.87101 0.0248,19.30653 0.0165,6.05336 0.0186,12.10656 0.01,18.15994 -7.7e-4,2.22037 0.004,4.44074 0.0135,6.66108 0.0127,3.03401 0.007,6.06744 -0.004,9.10144 0.0121,1.31398 0.0121,1.31398 0.0244,2.65451 -0.0455,5.67384 -1.12323,9.87226 -3.39191,15.0815 -0.33,-0.66 -0.66,-1.32 -1,-2 0.33,-0.99 0.66,-1.98 1,-3 0.0915,-2.8452 0.12598,-5.66545 0.11353,-8.5105 2.1e-4,-1.30276 2.1e-4,-1.30276 4.4e-4,-2.63183 -7e-4,-2.87316 -0.008,-5.74625 -0.0163,-8.61939 -0.002,-1.99111 -0.003,-3.98223 -0.004,-5.97334 -0.004,-5.24266 -0.0136,-10.4853 -0.0247,-15.72795 -0.0102,-5.34892 -0.0148,-10.69783 -0.0198,-16.04676 -0.0107,-10.49675 -0.0278,-20.99349 -0.0488,-31.49023 -0.61738,0.48551 -1.23475,0.97102 -1.87083,1.47124 -0.81019,0.63428 -1.62037,1.26857 -2.4551,1.92207 -0.803,0.62988 -1.606,1.25977 -2.43333,1.90874 -9.92117,7.51791 -20.98656,9.93888 -33.24074,8.69795 -14.12524,-2.61627 -24.20505,-8.50355 -34,-19 -0.99654,-1.00345 -1.99551,-2.00451 -3,-3 -0.53367,0.64066 -1.06734,1.28133 -1.61719,1.94141 -11.6872,13.56778 -22.57191,18.27751 -40.38271,20.05859 0,-38.28 0,-76.56 0,-115.999995 -6.27,0 -12.54,0 -18.999997,0 -4.623532,-0.309746 -9.156258,-0.66327 -13.75,-1.1875 C 84.021775,84.932174 82.838577,84.799804 81.619524,84.663422 54.564727,81.432592 21.968778,75.419846 3.4588828,53.478607 0.25661277,48.758311 0.21251277,43.711812 0.95497277,38.252045 5.3093728,26.33474 16.073843,21.04402 26.829973,15.689545 55.225868,2.6030574 88.180085,0.02122317 119.01747,0.00204468 Z"
     fill="#9fa1a2"
     id="path913" />
  <path
     d="m 0.95497277,48.252045 c 0.46535153,0.620925 0.93070313,1.24185 1.41015623,1.881591 16.380427,21.826316 44.837187,28.258591 70.527344,32.368409 14.957382,1.861363 30.021017,2.779582 45.062497,3.75 0,37.949995 0,75.899995 0,114.999995 -15.2226,0 -24.845232,-5.06843 -36.187497,-14.97266 -1.992179,-2.22832 -2.874486,-4.20841 -3.8125,-7.02734 -0.66,0.66 -1.32,1.32 -2,2 -0.460195,0.45504 -0.920391,0.91008 -1.394531,1.37891 -1.143157,1.15428 -2.263356,2.33149 -3.367188,3.52343 -8.695122,9.18897 -18.644676,14.76765 -31.433594,15.34375 -1.497198,0.0329 -2.994671,0.055 -4.492187,0.0664 -1.051029,0.008 -1.051029,0.008 -2.123291,0.0171 -6.80151,-0.0944 -13.051048,-1.47912 -19.189209,-4.51709 -0.763125,-0.3648 -1.52625,-0.72961 -2.3125,-1.10547 -0.886875,-0.56332 -1.7737502,-1.12664 -2.6875002,-1.70703 -0.6535723,-0.40307 -1.3071446,-0.80614 -1.9805222,-1.22143 -3.4592655,-2.49719 -5.6724822,-4.41446 -6.74691008,-8.63825 -0.25826842,-3.58782 -0.26192709,-7.09836 -0.18077087,-10.69476 0.002259,-1.37048 9.8479e-4,-2.74096 -0.00354,-4.11142 -0.002288,-3.70487 0.0446134,-7.40766 0.10059166,-11.11204 0.0501425,-3.87695 0.0547201,-7.75395 0.0642033,-11.63117 0.0248269,-7.33487 0.0904225,-14.66879 0.17079592,-22.00324 0.0895398,-8.35295 0.13343513,-16.70595 0.17356348,-25.05926 0.083534,-17.176695 0.22417126,-34.352459 0.40258876,-51.528425 z"
     fill="#3e3e3e"
     id="path915" />
  <path
     d="m 75.954973,179.25204 c 0.66,0 1.32,0 2,0 1.121094,1.46875 1.121094,1.46875 2.4375,3.5 5.753272,7.91426 14.413256,13.32827 23.562497,16.5 4.62,0.66 9.24,1.32 14,2 0,37.62 0,75.24 0,114 -26.779825,0 -26.779825,0 -35.499997,-1.1875 -1.022066,-0.13165 -2.044131,-0.26329 -3.097168,-0.39893 -25.242129,-3.44193 -58.27006,-9.0835 -75.6083982,-29.83715 -4.957504,-7.70323 -3.52327603,-17.56847 -3.38037103,-26.36157 0.0112,-2.02737 0.01974,-4.05475 0.02573,-6.08214 0.02281,-5.31207 0.08166,-10.62315 0.148224,-15.93483 0.0616,-5.42975 0.08883,-10.85967 0.119018,-16.28967 0.064166,-10.63651 0.166446,-21.27227 0.292965,-31.90821 0.54042903,0.41151 1.08085903,0.82302 1.63766503,1.247 0.713667,0.54006 1.427334,1.08012 2.162628,1.63655 0.705429,0.53526 1.410859,1.07052 2.137665,1.62199 2.607867,1.89005 5.3020862,3.37987 8.1870422,4.80696 0.971953,0.49114 1.943906,0.98227 2.945313,1.48829 10.740534,4.39645 25.258727,3.35605 36.003906,-0.48438 8.434205,-3.79483 14.232956,-9.32911 20.113281,-16.375 0.598125,-0.64066 1.19625,-1.28133 1.8125,-1.94141 z"
     fill="#3998c5"
     id="path917" />
  <path
     d="m 115.19618,12.121674 c 2.48997,0.0053 4.97976,4.2e-5 7.46973,-0.0063 28.52012,-0.0154 66.46691,0.700027 89.01172,20.804688 2.24831,2.344565 2.53576,4.366562 2.71484,7.519531 -0.10807,4.502896 -1.07043,6.962463 -4.27344,10.128906 -12.16382,9.46319 -27.37873,11.87305 -42.16406,14.683594 -0.90814,0.180791 -1.81629,0.361582 -2.75195,0.547852 -15.08147,2.875655 -30.32785,2.733594 -45.62305,2.764648 -1.03103,0.0038 -2.06206,0.0075 -3.12433,0.01141 C 99.066651,68.608115 82.262177,67.443778 65.204972,63.939541 64.140045,63.720803 63.075119,63.502066 61.977921,63.276699 48.902618,60.496777 33.858992,57.108071 25.954972,45.252041 c -0.680174,-4.223405 -0.582956,-7.860585 1.375,-11.6875 16.369373,-14.420639 39.735507,-17.76632 60.625,-20.3125 1.184568,-0.14792 1.184568,-0.14792 2.393066,-0.298828 8.270069,-0.896464 16.540382,-0.852641 24.848142,-0.831539 z"
     fill="#b8d433"
     id="path919" />
  <path
     d="M 119.01747,0.00204468 C 119.9934,0.00136994 120.96933,6.9519e-4 121.97484,0 c 35.65314,0.03905614 84.83116,2.4115859 111.98013,29.252045 3.77659,4.563383 6.10421,8.955863 6,15 -2.1811,9.224234 -7.35534,14.915246 -15.10547,20.0625 -20.44163,12.508005 -43.42721,16.946744 -66.89453,19.9375 -1.21389,0.169915 -2.42779,0.339829 -3.67846,0.514893 -11.22753,1.512177 -22.31434,1.844654 -33.63404,1.797607 -0.91448,-0.0018 -1.82896,-0.0036 -2.77115,-0.0055 C 82.016178,86.439316 34.294691,84.092123 6.9198128,57.400482 2.8486428,52.948901 0.76655277,49.370511 0.51747277,43.189545 0.83101277,36.281229 3.9182428,30.937376 8.9549728,26.252045 39.43841,3.3098067 82.242617,0.02491582 119.01747,0.00204468 Z M 74.954973,15.252045 c -1.493363,0.231286 -2.986847,0.461798 -4.480469,0.691406 -14.841979,2.40446 -31.269299,6.784184 -42.519531,17.308594 -2.031551,3.047326 -2.315601,3.894198 -2.375,7.375 -0.02836,0.750234 -0.05672,1.500469 -0.08594,2.273437 0.811539,4.140228 3.511972,6.555983 6.660156,9.195313 11.662895,7.763057 25.036202,10.121049 38.550781,12.90625 1.52488,0.316384 1.52488,0.316384 3.080566,0.63916 29.396314,5.776899 64.779874,5.461635 94.169434,-0.38916 1.07314,-0.203994 2.14629,-0.407988 3.25195,-0.618164 23.35908,-3.911603 23.35908,-3.911603 41.88477,-17.495117 1.68056,-3.672891 1.79782,-6.984488 0.86328,-10.886719 -7.62984,-12.398494 -24.75864,-15.720124 -37.88281,-19.089844 -4.67075,-1.081127 -9.38012,-1.868945 -14.11719,-2.597656 -0.76973,-0.119399 -1.53946,-0.238799 -2.33252,-0.361816 -13.6252,-1.952108 -27.36571,-2.187428 -41.10498,-2.200684 -1.24333,-0.002 -1.24333,-0.002 -2.51178,-0.0041 -13.88143,0.0049 -27.348985,0.921481 -41.050717,3.2541 z"
     fill="#fcfdfc"
     id="path921" />
  <path
     d="m 116.97743,46.991303 c 2.97449,0.01073 5.94838,2.8e-5 8.92285,-0.0127 15.34567,-0.01191 30.37643,0.993871 45.42969,4.148438 0.82726,0.168545 1.65451,0.33709 2.50684,0.510742 6.56127,1.38604 12.84704,3.217977 19.11816,5.614258 -0.33,0.66 -0.66,1.32 -1,2 -2.79207,0.921565 -5.5306,1.712976 -8.375,2.4375 -0.84619,0.218819 -1.69238,0.437637 -2.56421,0.663086 -15.67815,3.922073 -31.74635,6.048292 -47.90454,6.067383 -1.00857,0.0033 -2.01714,0.0067 -3.05627,0.01009 -2.12447,0.005 -4.24894,0.0074 -6.37342,0.0072 -3.19024,0.0022 -6.38013,0.02033 -9.57031,0.03931 -16.842936,0.04799 -32.906744,-1.265375 -49.406248,-4.72461 -1.060898,-0.212695 -2.121797,-0.42539 -3.214844,-0.644531 -4.962855,-1.014988 -9.775306,-2.082835 -14.535156,-3.855469 0,-0.66 0,-1.32 0,-2 7.0919,-2.709913 14.198154,-4.611856 21.625,-6.125 0.755068,-0.158233 1.510137,-0.316465 2.288086,-0.479492 15.311107,-3.001767 30.546432,-3.722783 46.109372,-3.656209 z"
     fill="#7fba01"
     id="path923" />
  <path
     style="fill:#000000;stroke:#0000ff;stroke-width:0.453543"
     id="path860"
     d="m 109.5808,127.67264 c 0.22871,2.6085 0.21971,5.23809 0.22633,7.8559 -0.0274,2.82919 -0.04,5.65817 -0.0449,8.48742 0.0474,3.20417 0.0604,6.40835 0.0906,9.61262 0.008,3.36365 -0.01,6.72664 -0.0572,10.08996 0.20216,2.97415 -0.80199,5.77833 -1.57491,8.60246 -0.94142,3.56035 -1.04152,7.24011 -1.20583,10.89498 -0.12688,2.67031 -0.25213,5.34123 -0.33671,8.01333 -0.0848,1.72953 0.0343,3.45777 0.0725,5.18658 0.0382,2.7468 0.0938,5.49513 0.0684,8.24225 -0.1251,2.53955 0.14464,5.06673 0.31804,7.59684 0.23044,2.43493 0.89943,4.78062 1.57059,7.12214 0.88843,2.61836 1.3374,5.35088 1.78642,8.0705 0.44472,2.97798 0.51749,5.98932 0.57544,8.99395 0.0128,2.86514 -0.0335,5.72959 -0.0105,8.59472 0.0142,3.28806 0.0772,6.57546 0.063,9.86379 0.1417,3.4297 0.37103,6.85316 0.66539,10.27262 0.21881,2.44964 0.31598,4.90585 0.3333,7.3645 -0.006,1.82089 0.0323,3.64083 0.007,5.46168 -0.0225,1.06738 -0.009,0.54849 -0.0386,1.55668 0,0 16.57185,-8.44068 16.57185,-8.44068 v 0 c -0.0264,-0.98324 -0.0146,-0.47607 -0.0347,-1.52154 -0.0244,-1.83136 0.0257,-3.66448 -0.078,-5.49384 -0.14247,-2.44706 -0.35472,-4.89061 -0.66528,-7.32242 -0.35473,-3.3527 -0.50886,-6.72067 -0.64349,-10.08844 -0.0121,-3.31181 0.0546,-6.62255 0.078,-9.93402 0.0292,-2.86566 -6.6e-4,-5.73067 -0.0724,-8.59567 -0.0642,-3.09093 -0.14366,-6.19562 -0.63224,-9.25418 -0.44626,-2.78569 -0.96946,-5.55426 -1.82427,-8.24867 -0.54443,-2.27651 -1.16659,-4.53906 -1.31942,-6.88719 -0.22417,-2.46015 -0.47348,-4.91734 -0.39543,-7.39297 -0.0262,-2.77023 0.0307,-5.54161 0.0628,-8.31163 0.0334,-1.74851 0.14356,-3.49723 0.0446,-5.24574 -0.09,-2.56468 -0.17854,-5.13027 -0.0975,-7.69685 0.16948,-3.57887 0.52391,-7.16286 1.54751,-10.61245 0.82797,-2.97001 1.64184,-5.93545 1.38879,-9.05736 -0.0478,-3.34387 -0.0649,-6.68742 -0.0572,-10.03162 0.0302,-3.23503 0.0434,-6.46997 0.0906,-9.7049 -0.005,-2.81402 -0.0173,-5.62776 -0.0448,-8.4417 0.007,-2.69502 0.004,-5.39996 0.22633,-8.08655 0,0 -16.65374,8.4855 -16.65374,8.4855 z" />
  <path
     style="fill:#000000;stroke:#0000ff;stroke-width:0.453543"
     id="path862"
     d="m 76.247631,169.52057 c 2.843769,-1.85469 5.642532,-3.77183 8.41144,-5.73757 2.565709,-1.76822 4.825909,-3.88363 6.919099,-6.18067 2.135843,-2.49266 4.138781,-5.06578 6.387935,-7.46271 3.152595,-2.93761 6.269325,-5.90406 9.215035,-9.05132 3.1264,-3.35594 5.79777,-7.04047 8.17735,-10.95191 0.27256,-0.49328 0.55897,-0.97915 0.81768,-1.47984 0.2102,-0.40681 0.36486,-0.84169 0.58836,-1.24136 0.80615,-1.44151 2.07099,-2.4385 3.32296,-3.46783 1.5108,-1.27377 3.09932,-2.46424 4.56804,-3.78411 5.08782,-3.68281 14.21695,-8.14761 -14.57166,8.28826 -0.10589,0.0605 0.1596,-0.21599 0.27998,-0.23542 0.65364,-0.10549 1.21039,0.28616 1.76209,0.53969 2.56199,1.40621 4.94865,3.08464 7.17149,4.97636 2.53539,2.37438 3.50822,4.89992 4.17025,8.22256 0.66422,2.68162 -0.0859,5.6311 0.86034,8.25429 0.21608,0.59899 0.56388,1.14191 0.84582,1.71286 0.45274,0.56779 0.85927,1.17574 1.35823,1.70338 2.71597,2.87202 6.61181,5.10817 9.87754,7.32893 3.18698,2.26194 6.25616,4.6848 9.37037,7.04537 2.2369,1.7752 4.43077,3.60773 6.54969,5.52235 0.49687,0.47644 0.97841,0.96772 1.47316,1.44631 0,0 15.83628,-9.85792 15.83628,-9.85792 v 0 c -0.57666,-0.44286 -1.0921,-0.94751 -1.6646,-1.39668 -2.35897,-1.72899 -4.63904,-3.56503 -6.99295,-5.30154 -3.12681,-2.44811 -6.23447,-4.92081 -9.59647,-7.04792 -2.04699,-1.33411 -4.10733,-2.62921 -6.07135,-4.08549 -1.27618,-0.94627 -2.27314,-1.66216 -3.32986,-2.84941 -0.3894,-0.43751 -0.6946,-0.94325 -1.04191,-1.41488 -0.19233,-0.46383 -0.43194,-0.91078 -0.57699,-1.3915 -0.79569,-2.63708 -0.22801,-5.53906 -0.94957,-8.19807 -0.76399,-3.74362 -1.97917,-6.49201 -4.66225,-9.28571 -2.20394,-2.05269 -4.70353,-3.70465 -7.21017,-5.36382 -0.20783,-0.15233 -2.42563,-1.82843 -2.6109,-1.73268 -11.55795,5.97324 -12.22732,5.29236 -17.44117,10.07448 -1.50366,1.22 -2.97095,2.48813 -4.40993,3.78334 -0.72084,0.72844 -1.02451,0.98552 -1.64688,1.82598 -1.07206,1.44774 -1.659511,3.13242 -2.521466,4.69966 -2.306702,3.90941 -5.129707,7.26845 -8.245014,10.55922 -3.01843,3.17604 -6.295814,6.07122 -9.40604,9.15288 -2.20249,2.42899 -4.149445,5.06688 -6.416326,7.43753 -2.18027,2.1638 -4.55006,4.10452 -7.063105,5.87271 -2.888186,2.07194 -5.852627,4.04455 -8.961861,5.7721 0,0 17.427333,-6.6999 17.427333,-6.6999 z" />
</svg>
