<svg xmlns="http://www.w3.org/2000/svg" xmlns:xlink="http://www.w3.org/1999/xlink" version="1.1" width="708.72" height="567" viewBox="0 0 708.72 567">
<defs>
<clipPath id="clip_0">
<path transform="matrix(1,0,0,-1,0,567)" d="M.000010561 0H708.72V567H.000010561Z" fill-rule="evenodd"/>
</clipPath>
<path id="font_1_147" d="M.18457031 0V.54296877H.0087890629V.65722659H.49658204V.54296877H.32177735V0H.18457031Z"/>
<path id="font_1_152" d="M.34814454-.0087890629C.2836914-.0087890629 .23095703 .001546224 .1899414 .022216797 .14892578 .04288737 .1188151 .073404949 .099609378 .11376953 .08040365 .15413411 .07080078 .20328777 .07080078 .26123048V.65722659H.21142578V.26464845C.21142578 .21061199 .22249349 .17041016 .2446289 .14404297 .2667643 .11767578 .30159507 .10449219 .3491211 .10449219 .39697267 .10449219 .43155924 .11767578 .45288087 .14404297 .47420249 .17041016 .48486329 .21061199 .48486329 .26464845V.65722659H.62597659V.26123048C.62597659 .20328777 .6163737 .15413411 .59716799 .11376953 .5779622 .073404949 .5479329 .04288737 .5070801 .022216797 .4662272 .001546224 .4132487-.0087890629 .34814454-.0087890629Z"/>
<path id="font_1_98" d="M.07861328 0V.65722659H.21289063L.5151367 .21435547V.65722659H.64453127V0H.5097656L.20703125 .44580079V0H.07861328Z"/>
<path id="font_1_1" d="M.0014648438 0 .23779297 .65722659H.38183595L.61865237 0H.47558595L.42871095 .14453125H.19140625L.1430664 0H.0014648438M.2241211 .25830079H.39501954L.3095703 .5214844 .2241211 .25830079Z"/>
</defs>
<g>
<path transform="matrix(1,0,0,-1,0,567)" stroke-width="8.0335" stroke-linecap="square" stroke-linejoin="round" fill="none" stroke="#91bee7" d="M26.403 355.13 38.217 355.43 45.437 355.26 52 354.76 59.219 353.81 76.283 351.31 80.877 351.13 84.815 351.34 88.753 351.96 92.691 353.02 96.629 354.49 101.22 356.67 115.66 364.06 118.94 365.05 121.57 365.44 124.19 365.41 126.16 365.06 128.13 364.42 130.1 363.47 132.73 361.72 135.35 359.42 137.98 356.61 141.26 352.46 145.85 345.83 153.73 334.24 157.01 330.28 159.63 327.85 161.6 326.59 163.57 325.88 164.89 325.75 166.2 325.92 167.51 326.39 168.82 327.17 170.79 328.96 172.76 331.5 174.73 334.79 176.7 338.79 179.32 345.18 182.61 354.63 186.54 367.5 195.73 398.2 198.36 405.4 200.33 409.88 202.29 413.38 203.61 415.11 204.92 416.31 206.23 416.93 207.55 416.95 208.86 416.35 210.17 415.1 211.48 413.19 212.8 410.62 214.77 405.51 216.73 398.94 218.7 390.98 221.33 378.36 224.61 359.92 229.2 330.82 236.42 284.85 239.7 267.25 242.33 255.99 244.3 249.6 245.61 246.45 246.92 244.27 248.24 243.1 248.89 242.91 249.55 242.99 250.21 243.33 251.52 244.86 252.83 247.49 254.14 251.25 255.46 256.12 257.43 265.48 259.39 277.18 262.02 296.14 264.64 318.4 268.58 356.33 279.08 460.95 281.71 482.08 283.68 495.32 285.65 505.9 286.96 511.33 288.27 515.35 289.59 517.91 290.24 518.62 290.9 518.95 291.55 518.88 292.21 518.43 292.87 517.58 294.18 514.69 295.49 510.23 296.8 504.2 298.77 492.3 300.74 477.16 303.37 452.38 305.99 423.14 309.93 373.22 320.43 235.59 323.06 207.59 325.68 184.67 327.65 171.42 328.96 164.65 330.28 159.64 331.59 156.43 332.24 155.51 332.9 155.07 333.56 155.09 334.21 155.59 334.87 156.55 336.18 159.89 337.5 165.09 338.81 172.09 340.78 185.86 342.75 203.29 345.37 231.58 348.65 273.5 353.25 339.83 360.47 444.46 363.75 485.08 366.37 512 368.34 528.25 370.31 540.73 371.62 546.84 372.94 551.11 374.25 553.51 374.91 554 375.56 554.03 376.22 553.58 376.87 552.67 378.19 549.46 379.5 544.44 380.81 537.68 382.78 524.43 384.75 507.76 387.37 480.93 390.66 441.61 395.91 371.39 401.81 293.85 405.1 256.71 407.72 231.94 409.69 216.8 411.66 204.9 412.97 198.87 414.28 194.4 415.6 191.52 416.25 190.67 416.91 190.21 417.57 190.15 418.22 190.48 418.88 191.19 420.19 193.75 421.5 197.77 422.82 203.19 424.78 213.78 426.75 227.01 429.38 248.15 432.66 278.79 439.88 352.77 443.82 390.7 447.1 418.03 449.73 436.07 451.69 447.01 453.66 455.55 454.97 459.87 456.29 463.06 457.6 465.14 458.91 466.11 459.57 466.19 460.23 466 460.88 465.54 462.19 463.86 463.51 461.19 464.82 457.58 466.79 450.57 468.76 441.85 471.38 428.03 474.67 408.21 486.48 334.21 489.1 321.07 491.73 310.16 493.7 303.59 495.67 298.48 497.64 294.87 498.95 293.29 500.26 292.37 501.57 292.08 502.89 292.41 504.2 293.32 505.51 294.78 506.82 296.77 508.79 300.62 510.76 305.38 513.39 312.88 517.32 325.75 525.86 354.47 529.14 363.92 531.76 370.31 534.39 375.49 536.36 378.52 538.33 380.81 540.3 382.36 541.61 382.99 542.92 383.3 544.23 383.32 545.55 383.05 547.51 382.15 549.48 380.72 551.45 378.82 554.08 375.72 557.36 371.18 569.17 354.07 572.46 350.33 575.08 347.9 577.71 346.01 580.33 344.68 582.96 343.89 585.58 343.61 588.21 343.8 590.83 344.38 594.11 345.56 598.05 347.44 612.49 354.88 616.43 356.29 620.37 357.27 624.3 357.82 628.24 357.97 632.84 357.74 638.74 357 657.78 354.21 664.34 353.78 671.56 353.67 681.4 353.94 682.06 353.97"/>
<path transform="matrix(1,0,0,-1,0,567)" d="M182.76 358.38C182.76 389.01 207.59 413.84 238.22 413.84H388.49C419.12 413.84 443.95 389.01 443.95 358.38V351.12C443.95 320.49 419.12 295.66 388.49 295.66H238.22C207.59 295.66 182.76 320.49 182.76 351.12Z" fill="#f5f9fd" fill-rule="evenodd"/>
<path transform="matrix(1,0,0,-1,0,567)" stroke-width="8" stroke-linecap="butt" stroke-miterlimit="8" stroke-linejoin="miter" fill="none" stroke="#215f9a" d="M182.76 358.38C182.76 389.01 207.59 413.84 238.22 413.84H388.49C419.12 413.84 443.95 389.01 443.95 358.38V351.12C443.95 320.49 419.12 295.66 388.49 295.66H238.22C207.59 295.66 182.76 320.49 182.76 351.12Z"/>
<path transform="matrix(1,0,0,-1,0,567)" d="M270.83 413.84 285.58 454.48H344.6L329.84 413.84Z" fill="#f5f9fd" fill-rule="evenodd"/>
<path transform="matrix(1,0,0,-1,0,567)" stroke-width="8" stroke-linecap="butt" stroke-miterlimit="8" stroke-linejoin="miter" fill="none" stroke="#215f9a" d="M270.83 413.84 285.58 454.48H344.6L329.84 413.84Z"/>
<path transform="matrix(1,0,0,-1,0,567)" d="M270.83 295.66 285.58 255.02H344.6L329.84 295.66Z" fill="#f5f9fd" fill-rule="evenodd"/>
<path transform="matrix(1,0,0,-1,0,567)" stroke-width="8" stroke-linecap="butt" stroke-miterlimit="8" stroke-linejoin="miter" fill="none" stroke="#215f9a" d="M270.83 295.66 285.58 255.02H344.6L329.84 295.66Z"/>
<path transform="matrix(1,0,0,-1,0,567)" stroke-width="8" stroke-linecap="butt" stroke-miterlimit="8" stroke-linejoin="miter" fill="none" stroke="#215f9a" d="M311.45 363.41 323.49 334.05"/>
<path transform="matrix(1,0,0,-1,0,567)" stroke-width="8" stroke-linecap="butt" stroke-miterlimit="8" stroke-linejoin="miter" fill="none" stroke="#215f9a" d="M329.6 363.41 341.64 334.05"/>
<path transform="matrix(1,0,0,-1,0,567)" d="M484.45 413.84H528.99C521.15 413.84 489.72 387.38 489.72 354.75 489.72 322.12 521.15 295.66 528.99 295.66L482.95 296.42C475.11 296.42 443.68 335.18 443.93 354.75 444.18 374.32 476.62 413.84 484.45 413.84Z" fill="#f5f9fd" fill-rule="evenodd"/>
<path transform="matrix(1,0,0,-1,0,567)" stroke-width="8" stroke-linecap="butt" stroke-miterlimit="8" stroke-linejoin="miter" fill="none" stroke="#215f9a" d="M484.45 413.84H528.99C521.15 413.84 489.72 387.38 489.72 354.75 489.72 322.12 521.15 295.66 528.99 295.66L482.95 296.42C475.11 296.42 443.68 335.18 443.93 354.75 444.18 374.32 476.62 413.84 484.45 413.84Z"/>
<path transform="matrix(1,0,0,-1,0,567)" d="M226.53 378.1C226.53 381.15 229 383.62 232.05 383.62 235.1 383.62 237.57 381.15 237.57 378.1 237.57 375.05 235.1 372.57 232.05 372.57 229 372.57 226.53 375.05 226.53 378.1Z" fill="#215f9a" fill-rule="evenodd"/>
<path transform="matrix(1,0,0,-1,0,567)" stroke-width="8" stroke-linecap="butt" stroke-miterlimit="8" stroke-linejoin="miter" fill="none" stroke="#215f9a" d="M226.53 378.1C226.53 381.15 229 383.62 232.05 383.62 235.1 383.62 237.57 381.15 237.57 378.1 237.57 375.05 235.1 372.57 232.05 372.57 229 372.57 226.53 375.05 226.53 378.1Z"/>
<g clip-path="url(#clip_0)">
<use data-text="T" xlink:href="#font_1_147" transform="matrix(80.064,0,0,-80.064,252.62,527.76)" fill="#215f9a"/>
<use data-text="U" xlink:href="#font_1_152" transform="matrix(80.064,0,0,-80.064,293.0523,527.76)" fill="#215f9a"/>
<use data-text="N" xlink:href="#font_1_98" transform="matrix(80.064,0,0,-80.064,348.77687,527.76)" fill="#215f9a"/>
<use data-text="A" xlink:href="#font_1_1" transform="matrix(80.064,0,0,-80.064,406.66316,527.76)" fill="#215f9a"/>
</g>
</g>
</svg>
