<?xml version="1.0" encoding="UTF-8" standalone="no"?>
<svg
   version="1.1"
   width="240.34688"
   height="315.66248"
   id="svg925"
   sodipodi:docname="adls.svg"
   inkscape:version="1.1.2 (0a00cf5339, 2022-02-04)"
   xmlns:inkscape="http://www.inkscape.org/namespaces/inkscape"
   xmlns:sodipodi="http://sodipodi.sourceforge.net/DTD/sodipodi-0.dtd"
   xmlns="http://www.w3.org/2000/svg"
   xmlns:svg="http://www.w3.org/2000/svg">
  <defs
     id="defs929" />
  <sodipodi:namedview
     id="namedview927"
     pagecolor="#ffffff"
     bordercolor="#666666"
     borderopacity="1.0"
     inkscape:pageshadow="2"
     inkscape:pageopacity="0.0"
     inkscape:pagecheckerboard="0"
     showgrid="false"
     inkscape:zoom="1.6883333"
     inkscape:cx="119.94077"
     inkscape:cy="157.55183"
     inkscape:window-width="1920"
     inkscape:window-height="1022"
     inkscape:window-x="0"
     inkscape:window-y="0"
     inkscape:window-maximized="1"
     inkscape:current-layer="svg925" />
  <path
     d="M 119.01747,0.00204468 C 119.9934,0.00136994 120.96933,6.9519e-4 121.97484,0 c 35.59393,0.03899128 84.90719,2.3842034 111.98013,29.252045 5.68539,7.106733 6.14911,13.521471 6.14044,22.355057 0.003,0.946012 0.006,1.892023 0.009,2.866702 0.009,3.171939 0.0102,6.34384 0.0117,9.51579 0.005,2.273443 0.01,4.546886 0.0151,6.820328 0.0131,6.177729 0.0196,12.355448 0.024,18.53319 0.003,3.859347 0.007,7.718691 0.0115,11.578028 0.0121,10.6914 0.0225,21.38279 0.0259,32.07419 3.3e-4,1.0257 3.3e-4,1.0257 6.6e-4,2.07212 2.2e-4,0.6854 4.4e-4,1.3708 6.6e-4,2.07698 4.5e-4,1.38881 8.9e-4,2.77763 0.001,4.16645 3.4e-4,1.03334 3.4e-4,1.03334 6.8e-4,2.08756 0.004,11.162 0.0214,22.32394 0.0447,33.48591 0.0237,11.46757 0.0359,22.93509 0.0374,34.40269 10e-4,6.43555 0.007,12.87101 0.0248,19.30653 0.0165,6.05336 0.0186,12.10656 0.01,18.15994 -7.7e-4,2.22037 0.004,4.44074 0.0135,6.66108 0.0127,3.03401 0.007,6.06744 -0.004,9.10144 0.0121,1.31398 0.0121,1.31398 0.0244,2.65451 -0.0678,8.44533 -2.43532,14.9048 -8.25128,21.13619 -13.56742,12.32994 -32.58855,17.63062 -50.07766,21.57031 -0.83692,0.194 -1.67385,0.38801 -2.53613,0.58789 -18.40264,3.95828 -36.97078,5.28967 -55.75317,5.17822 -3.20674,-0.0161 -6.41221,-2e-5 -9.6189,0.019 -33.89852,0.0352 -81.25455,-3.29325 -107.1542972,-28.41016 -5.25714,-6.18823 -6.87884003,-11.12399 -6.74171003,-19.15324 -0.0109,-1.47527 -0.0109,-1.47527 -0.022,-2.98033 -0.0168,-3.27535 0.009,-6.54892 0.0349,-9.82419 -0.003,-2.3561 -0.009,-4.7122 -0.0173,-7.06829 -0.0145,-6.3842 0.008,-12.76776 0.0389,-19.15189 0.0237,-6.00581 0.0215,-12.01159 0.0202,-18.01744 -0.001,-11.89779 0.0259,-23.79534 0.0696,-35.69305 0.0423,-11.53813 0.0635,-23.07605 0.0615,-34.61426 -1.2e-4,-0.71112 -2.4e-4,-1.42224 -3.6e-4,-2.15491 -1.2e-4,-0.70991 -2.4e-4,-1.41982 -3.7e-4,-2.15124 -0.002,-12.48292 0.0134,-24.96576 0.0384,-37.448657 0.0106,-5.312068 0.0161,-10.624105 0.0177,-15.936184 0.003,-6.252086 0.0213,-12.503949 0.0515,-18.755962 0.009,-2.295367 0.0125,-4.590761 0.0107,-6.886145 -0.001,-3.130876 0.0155,-6.261125 0.0372,-9.391914 -0.005,-0.910211 -0.009,-1.820423 -0.0141,-2.758216 C 0.62053277,38.225617 2.5356028,33.199205 7.2752628,27.814495 34.853064,2.1607975 83.679657,0.02402209 119.01747,0.00204468 Z"
     fill="#59b3d8"
     id="path911" />
  <path
     d="M 119.01747,0.00204468 C 119.9934,0.00136994 120.96933,6.9519e-4 121.97484,0 c 35.59393,0.03899128 84.90719,2.3842034 111.98013,29.252045 5.68539,7.106733 6.14911,13.521471 6.14044,22.355057 0.003,0.946012 0.006,1.892023 0.009,2.866702 0.009,3.171939 0.0102,6.34384 0.0117,9.51579 0.005,2.273443 0.01,4.546886 0.0151,6.820328 0.0131,6.177729 0.0196,12.355448 0.024,18.53319 0.003,3.859347 0.007,7.718691 0.0115,11.578028 0.0121,10.6914 0.0225,21.38279 0.0259,32.07419 3.3e-4,1.0257 3.3e-4,1.0257 6.6e-4,2.07212 2.2e-4,0.6854 4.4e-4,1.3708 6.6e-4,2.07698 4.5e-4,1.38881 8.9e-4,2.77763 0.001,4.16645 3.4e-4,1.03334 3.4e-4,1.03334 6.8e-4,2.08756 0.004,11.162 0.0214,22.32394 0.0447,33.48591 0.0237,11.46757 0.0359,22.93509 0.0374,34.40269 10e-4,6.43555 0.007,12.87101 0.0248,19.30653 0.0165,6.05336 0.0186,12.10656 0.01,18.15994 -7.7e-4,2.22037 0.004,4.44074 0.0135,6.66108 0.0127,3.03401 0.007,6.06744 -0.004,9.10144 0.0121,1.31398 0.0121,1.31398 0.0244,2.65451 -0.0455,5.67384 -1.12323,9.87226 -3.39191,15.0815 -0.33,-0.66 -0.66,-1.32 -1,-2 0.33,-0.99 0.66,-1.98 1,-3 0.0915,-2.8452 0.12598,-5.66545 0.11353,-8.5105 2.1e-4,-1.30276 2.1e-4,-1.30276 4.4e-4,-2.63183 -7e-4,-2.87316 -0.008,-5.74625 -0.0163,-8.61939 -0.002,-1.99111 -0.003,-3.98223 -0.004,-5.97334 -0.004,-5.24266 -0.0136,-10.4853 -0.0247,-15.72795 -0.0102,-5.34892 -0.0148,-10.69783 -0.0198,-16.04676 -0.0107,-10.49675 -0.0278,-20.99349 -0.0488,-31.49023 -0.61738,0.48551 -1.23475,0.97102 -1.87083,1.47124 -0.81019,0.63428 -1.62037,1.26857 -2.4551,1.92207 -0.803,0.62988 -1.606,1.25977 -2.43333,1.90874 -9.92117,7.51791 -20.98656,9.93888 -33.24074,8.69795 -14.12524,-2.61627 -24.20505,-8.50355 -34,-19 -0.99654,-1.00345 -1.99551,-2.00451 -3,-3 -0.53367,0.64066 -1.06734,1.28133 -1.61719,1.94141 -11.6872,13.56778 -22.57191,18.27751 -40.38271,20.05859 0,-38.28 0,-76.56 0,-115.999995 -6.27,0 -12.54,0 -18.999997,0 -4.623532,-0.309746 -9.156258,-0.66327 -13.75,-1.1875 C 84.021775,84.932174 82.838577,84.799804 81.619524,84.663422 54.564727,81.432592 21.968778,75.419846 3.4588828,53.478607 0.25661277,48.758311 0.21251277,43.711812 0.95497277,38.252045 5.3093728,26.33474 16.073843,21.04402 26.829973,15.689545 55.225868,2.6030574 88.180085,0.02122317 119.01747,0.00204468 Z"
     fill="#9fa1a2"
     id="path913" />
  <path
     d="m 0.95497277,48.252045 c 0.46535153,0.620925 0.93070313,1.24185 1.41015623,1.881591 16.380427,21.826316 44.837187,28.258591 70.527344,32.368409 14.957382,1.861363 30.021017,2.779582 45.062497,3.75 0,37.949995 0,75.899995 0,114.999995 -15.2226,0 -24.845232,-5.06843 -36.187497,-14.97266 -1.992179,-2.22832 -2.874486,-4.20841 -3.8125,-7.02734 -0.66,0.66 -1.32,1.32 -2,2 -0.460195,0.45504 -0.920391,0.91008 -1.394531,1.37891 -1.143157,1.15428 -2.263356,2.33149 -3.367188,3.52343 -8.695122,9.18897 -18.644676,14.76765 -31.433594,15.34375 -1.497198,0.0329 -2.994671,0.055 -4.492187,0.0664 -1.051029,0.008 -1.051029,0.008 -2.123291,0.0171 -6.80151,-0.0944 -13.051048,-1.47912 -19.189209,-4.51709 -0.763125,-0.3648 -1.52625,-0.72961 -2.3125,-1.10547 -0.886875,-0.56332 -1.7737502,-1.12664 -2.6875002,-1.70703 -0.6535723,-0.40307 -1.3071446,-0.80614 -1.9805222,-1.22143 -3.4592655,-2.49719 -5.6724822,-4.41446 -6.74691008,-8.63825 -0.25826842,-3.58782 -0.26192709,-7.09836 -0.18077087,-10.69476 0.002259,-1.37048 9.8479e-4,-2.74096 -0.00354,-4.11142 -0.002288,-3.70487 0.0446134,-7.40766 0.10059166,-11.11204 0.0501425,-3.87695 0.0547201,-7.75395 0.0642033,-11.63117 0.0248269,-7.33487 0.0904225,-14.66879 0.17079592,-22.00324 0.0895398,-8.35295 0.13343513,-16.70595 0.17356348,-25.05926 0.083534,-17.176695 0.22417126,-34.352459 0.40258876,-51.528425 z"
     fill="#3e3e3e"
     id="path915" />
  <path
     d="m 75.954973,179.25204 c 0.66,0 1.32,0 2,0 1.121094,1.46875 1.121094,1.46875 2.4375,3.5 5.753272,7.91426 14.413256,13.32827 23.562497,16.5 4.62,0.66 9.24,1.32 14,2 0,37.62 0,75.24 0,114 -26.779825,0 -26.779825,0 -35.499997,-1.1875 -1.022066,-0.13165 -2.044131,-0.26329 -3.097168,-0.39893 -25.242129,-3.44193 -58.27006,-9.0835 -75.6083982,-29.83715 -4.957504,-7.70323 -3.52327603,-17.56847 -3.38037103,-26.36157 0.0112,-2.02737 0.01974,-4.05475 0.02573,-6.08214 0.02281,-5.31207 0.08166,-10.62315 0.148224,-15.93483 0.0616,-5.42975 0.08883,-10.85967 0.119018,-16.28967 0.064166,-10.63651 0.166446,-21.27227 0.292965,-31.90821 0.54042903,0.41151 1.08085903,0.82302 1.63766503,1.247 0.713667,0.54006 1.427334,1.08012 2.162628,1.63655 0.705429,0.53526 1.410859,1.07052 2.137665,1.62199 2.607867,1.89005 5.3020862,3.37987 8.1870422,4.80696 0.971953,0.49114 1.943906,0.98227 2.945313,1.48829 10.740534,4.39645 25.258727,3.35605 36.003906,-0.48438 8.434205,-3.79483 14.232956,-9.32911 20.113281,-16.375 0.598125,-0.64066 1.19625,-1.28133 1.8125,-1.94141 z"
     fill="#3998c5"
     id="path917" />
  <path
     d="m 115.19618,12.121674 c 2.48997,0.0053 4.97976,4.2e-5 7.46973,-0.0063 28.52012,-0.0154 66.46691,0.700027 89.01172,20.804688 2.24831,2.344565 2.53576,4.366562 2.71484,7.519531 -0.10807,4.502896 -1.07043,6.962463 -4.27344,10.128906 -12.16382,9.46319 -27.37873,11.87305 -42.16406,14.683594 -0.90814,0.180791 -1.81629,0.361582 -2.75195,0.547852 -15.08147,2.875655 -30.32785,2.733594 -45.62305,2.764648 -1.03103,0.0038 -2.06206,0.0075 -3.12433,0.01141 C 99.066651,68.608115 82.262177,67.443778 65.204972,63.939541 64.140045,63.720803 63.075119,63.502066 61.977921,63.276699 48.902618,60.496777 33.858992,57.108071 25.954972,45.252041 c -0.680174,-4.223405 -0.582956,-7.860585 1.375,-11.6875 16.369373,-14.420639 39.735507,-17.76632 60.625,-20.3125 1.184568,-0.14792 1.184568,-0.14792 2.393066,-0.298828 8.270069,-0.896464 16.540382,-0.852641 24.848142,-0.831539 z"
     fill="#b8d433"
     id="path919" />
  <path
     d="M 119.01747,0.00204468 C 119.9934,0.00136994 120.96933,6.9519e-4 121.97484,0 c 35.65314,0.03905614 84.83116,2.4115859 111.98013,29.252045 3.77659,4.563383 6.10421,8.955863 6,15 -2.1811,9.224234 -7.35534,14.915246 -15.10547,20.0625 -20.44163,12.508005 -43.42721,16.946744 -66.89453,19.9375 -1.21389,0.169915 -2.42779,0.339829 -3.67846,0.514893 -11.22753,1.512177 -22.31434,1.844654 -33.63404,1.797607 -0.91448,-0.0018 -1.82896,-0.0036 -2.77115,-0.0055 C 82.016178,86.439316 34.294691,84.092123 6.9198128,57.400482 2.8486428,52.948901 0.76655277,49.370511 0.51747277,43.189545 0.83101277,36.281229 3.9182428,30.937376 8.9549728,26.252045 39.43841,3.3098067 82.242617,0.02491582 119.01747,0.00204468 Z M 74.954973,15.252045 c -1.493363,0.231286 -2.986847,0.461798 -4.480469,0.691406 -14.841979,2.40446 -31.269299,6.784184 -42.519531,17.308594 -2.031551,3.047326 -2.315601,3.894198 -2.375,7.375 -0.02836,0.750234 -0.05672,1.500469 -0.08594,2.273437 0.811539,4.140228 3.511972,6.555983 6.660156,9.195313 11.662895,7.763057 25.036202,10.121049 38.550781,12.90625 1.52488,0.316384 1.52488,0.316384 3.080566,0.63916 29.396314,5.776899 64.779874,5.461635 94.169434,-0.38916 1.07314,-0.203994 2.14629,-0.407988 3.25195,-0.618164 23.35908,-3.911603 23.35908,-3.911603 41.88477,-17.495117 1.68056,-3.672891 1.79782,-6.984488 0.86328,-10.886719 -7.62984,-12.398494 -24.75864,-15.720124 -37.88281,-19.089844 -4.67075,-1.081127 -9.38012,-1.868945 -14.11719,-2.597656 -0.76973,-0.119399 -1.53946,-0.238799 -2.33252,-0.361816 -13.6252,-1.952108 -27.36571,-2.187428 -41.10498,-2.200684 -1.24333,-0.002 -1.24333,-0.002 -2.51178,-0.0041 -13.88143,0.0049 -27.348985,0.921481 -41.050717,3.2541 z"
     fill="#fcfdfc"
     id="path921" />
  <path
     d="m 116.97743,46.991303 c 2.97449,0.01073 5.94838,2.8e-5 8.92285,-0.0127 15.34567,-0.01191 30.37643,0.993871 45.42969,4.148438 0.82726,0.168545 1.65451,0.33709 2.50684,0.510742 6.56127,1.38604 12.84704,3.217977 19.11816,5.614258 -0.33,0.66 -0.66,1.32 -1,2 -2.79207,0.921565 -5.5306,1.712976 -8.375,2.4375 -0.84619,0.218819 -1.69238,0.437637 -2.56421,0.663086 -15.67815,3.922073 -31.74635,6.048292 -47.90454,6.067383 -1.00857,0.0033 -2.01714,0.0067 -3.05627,0.01009 -2.12447,0.005 -4.24894,0.0074 -6.37342,0.0072 -3.19024,0.0022 -6.38013,0.02033 -9.57031,0.03931 -16.842936,0.04799 -32.906744,-1.265375 -49.406248,-4.72461 -1.060898,-0.212695 -2.121797,-0.42539 -3.214844,-0.644531 -4.962855,-1.014988 -9.775306,-2.082835 -14.535156,-3.855469 0,-0.66 0,-1.32 0,-2 7.0919,-2.709913 14.198154,-4.611856 21.625,-6.125 0.755068,-0.158233 1.510137,-0.316465 2.288086,-0.479492 15.311107,-3.001767 30.546432,-3.722783 46.109372,-3.656209 z"
     fill="#7fba01"
     id="path923" />
</svg>
