<svg xmlns="http://www.w3.org/2000/svg" xmlns:xlink="http://www.w3.org/1999/xlink" viewBox="0 0 48 48"><defs><style>.cls-1{fill:none;}.cls-2{fill:#0ee5d0;}.cls-3{fill:#fff;}.cls-4{clip-path:url(#clip-path);}</style><clipPath id="clip-path"><path class="cls-1" d="M93.26,29.86a6,6,0,1,1,6-6A6,6,0,0,1,93.26,29.86Zm9.56-15.53H99l-1.48-1.62a2.35,2.35,0,0,0-1.75-.77H90.73a2.41,2.41,0,0,0-1.77.77l-1.47,1.62H83.7a2.4,2.4,0,0,0-2.39,2.39V31.06a2.4,2.4,0,0,0,2.39,2.39h19.12a2.4,2.4,0,0,0,2.39-2.39V16.72A2.39,2.39,0,0,0,102.82,14.33Zm-9.56,6a3.59,3.59,0,1,0,3.59,3.59A3.58,3.58,0,0,0,93.26,20.3Z"/></clipPath></defs><g id="Layer_2" data-name="Layer 2"><circle class="cls-2" cx="24" cy="24" r="23.31"/><path class="cls-3" d="M37.31,24a6.79,6.79,0,0,0,1.38-4.06,6.58,6.58,0,0,0-1.35-4,6.76,6.76,0,0,0-2.49-2,6.64,6.64,0,0,0-6.65-6.6,6.45,6.45,0,0,0-3,.7,6.05,6.05,0,0,0-1.31.86,6.66,6.66,0,0,0-9,.38A6.66,6.66,0,0,0,13,13.91a6.66,6.66,0,0,0-3.25,8.8A7.63,7.63,0,0,0,10.54,24a7.63,7.63,0,0,0-.78,1.29,6.67,6.67,0,0,0,.75,6.79,6.69,6.69,0,0,0,2.5,2,6.62,6.62,0,0,0,6.64,6.6,6.65,6.65,0,0,0,4.28-1.56,6.05,6.05,0,0,0,1.31.86,6.45,6.45,0,0,0,3,.7,6.6,6.6,0,0,0,4.7-1.94,6.72,6.72,0,0,0,2-4.66,6.66,6.66,0,0,0,2.49-2,6.67,6.67,0,0,0,.75-6.79A7,7,0,0,0,37.31,24Zm-2,6.51a4,4,0,0,1-1,.91,6.91,6.91,0,0,0-1.41-2.07,6.62,6.62,0,0,0-4.7-1.94h-.75V30h.75a4,4,0,0,1,2.86,1.19,4,4,0,0,1,0,5.72,4,4,0,0,1-5.84-.12V35.35H26.4a2.75,2.75,0,0,0,2.39,1.42,2.72,2.72,0,1,0-2.39-4H25.22V21.19h.09a2.72,2.72,0,1,0,3.53-3.77l.35-.34a3.83,3.83,0,0,1,1.31-.88,3.9,3.9,0,0,1,1.55-.31,4,4,0,0,1,4.05,4.05,4.08,4.08,0,0,1-.37,1.69A4.28,4.28,0,0,1,35,22.7h-.78a2.72,2.72,0,1,0,0,2.6H35a4.28,4.28,0,0,1,.72,1.07,4.06,4.06,0,0,1-.45,4.14ZM27.7,19.77a.12.12,0,0,1,.12.12c0,.13-.24.13-.24,0A.12.12,0,0,1,27.7,19.77Zm1.81-6a6.7,6.7,0,0,0-2.16,1.44l-.53.53,1.47,1.46a2.88,2.88,0,0,0-.59-.06,2.73,2.73,0,0,0-2.39,1.42h-.09V11.21a4,4,0,0,1,5.84-.12A4,4,0,0,1,32.2,13.3,6.76,6.76,0,0,0,29.51,13.8Zm-.84,20.25a.12.12,0,0,1,.12-.12.12.12,0,0,1,.12.12C28.91,34.18,28.67,34.18,28.67,34.05ZM32,24c0,.13-.24.13-.24,0A.12.12,0,1,1,32,24Zm-16,.08v-.16a.09.09,0,0,1,.08,0l.09,0v.16Zm-3.8,2.29a4.28,4.28,0,0,1,.72-1.07h.78a2.56,2.56,0,0,0,.46.62,2.77,2.77,0,0,0,3.84,0,2.7,2.7,0,0,0,0-3.84,2.77,2.77,0,0,0-3.84,0,2.56,2.56,0,0,0-.46.62h-.78a4.28,4.28,0,0,1-.72-1.07,4.06,4.06,0,0,1,.45-4.14,4,4,0,0,1,1-.91A6.79,6.79,0,0,0,15,18.65a6.64,6.64,0,0,0,4.7,1.94h.75V18h-.75a4,4,0,0,1-2.86-1.19,4,4,0,0,1,0-5.72,4,4,0,0,1,5.84.12v1.44H21.45a2.75,2.75,0,0,0-2.39-1.42A2.72,2.72,0,1,0,21,15.87a2.56,2.56,0,0,0,.46-.62h1.18V26.81h-.09A2.72,2.72,0,1,0,19,30.58l-.35.34a4,4,0,0,1-1.31.88,3.9,3.9,0,0,1-1.55.31,4,4,0,0,1-4.05-4.05A4.08,4.08,0,0,1,12.12,26.37ZM19.18,14l-.12.12a.12.12,0,1,1,0-.24A.12.12,0,0,1,19.18,14Zm1.09,14.16a.12.12,0,0,1-.23,0,.12.12,0,0,1,.11-.12A.12.12,0,0,1,20.27,28.11ZM18.34,34.2a6.7,6.7,0,0,0,2.16-1.44l.53-.53-1.47-1.46a2.88,2.88,0,0,0,.59.06,2.73,2.73,0,0,0,2.39-1.42h.09v7.38a4,4,0,0,1-5.84.12,4,4,0,0,1-1.13-2.21A6.48,6.48,0,0,0,18.34,34.2Z"/></g></svg>