<svg xmlns="http://www.w3.org/2000/svg" viewBox="0 0 22.87 16.88"><defs><style>.cls-1{fill:#f8fefc;}</style></defs><g id="Layer_2" data-name="Layer 2"><g id="sensors"><path class="cls-1" d="M.88,16.88a.88.88,0,0,1-.61-1.52L16.13.24a.89.89,0,0,1,1.25,0,.88.88,0,0,1,0,1.25L3.11,15.1,22,15h0a.89.89,0,0,1,0,1.77l-21.1.15Z"/><path class="cls-1" d="M13.72,16.1,12,15.88a8.88,8.88,0,0,0-.38-3.94A8.62,8.62,0,0,0,9.12,8.25L10.3,6.93a10.31,10.31,0,0,1,2.95,4.44A10.65,10.65,0,0,1,13.72,16.1Z"/></g></g></svg>