<svg xmlns="http://www.w3.org/2000/svg" viewBox="0 0 33.14 18.99"><defs><style>.cls-1{fill:#fff;}</style></defs><g id="Layer_2" data-name="Layer 2"><g id="AI"><path class="cls-1" d="M.56,0s-.71,2.47.67,3.9L3.68,1.3A3.18,3.18,0,0,1,.56,0Z"/><path class="cls-1" d="M32.58,0s.71,2.47-.67,3.9L29.46,1.3A3.18,3.18,0,0,0,32.58,0Z"/><path class="cls-1" d="M9.22,18.15c-3.13,0-5.66-3-5.66-6.66S6.09,4.83,9.22,4.83a5.37,5.37,0,0,1,4.4,2.48C13,4.18,10.8,2.83,6,1.22,2.37,0,0,2.92,0,7.57v4.5C.07,16.66,3.13,19,6.9,19a7.24,7.24,0,0,0,4.18-1.22A4.87,4.87,0,0,1,9.22,18.15Z"/><path class="cls-1" d="M10.74,6.94c.22.62-1.11,1-2.47,1.51s-2.45,1-2.67.39.52-2.15,1.88-2.63S10.52,6.33,10.74,6.94Z"/><path class="cls-1" d="M27.16,1.22c-4.82,1.61-7,3-7.65,6.09a5.4,5.4,0,0,1,4.41-2.48c3.13,0,5.66,3,5.66,6.66s-2.53,6.66-5.66,6.66a4.87,4.87,0,0,1-1.86-.38A7.24,7.24,0,0,0,26.24,19c3.77,0,6.83-2.33,6.9-6.92V7.57C33.14,2.92,30.77,0,27.16,1.22Z"/><path class="cls-1" d="M25.19,6.94c.22.62-1.11,1-2.46,1.51s-2.46,1-2.68.39.53-2.15,1.88-2.63S25,6.33,25.19,6.94Z"/></g></g></svg>