<?xml version="1.0" encoding="utf-8"?>
<!-- Generator: Adobe Illustrator 25.3.1, SVG Export Plug-In . SVG Version: 6.00 Build 0)  -->
<svg version="1.1" id="Layer_1" xmlns="http://www.w3.org/2000/svg" xmlns:xlink="http://www.w3.org/1999/xlink" x="0px" y="0px"
	 viewBox="0 0 860.5 611.9" style="enable-background:new 0 0 860.5 611.9;" xml:space="preserve">
<style type="text/css">
	.st0{fill:#FFFFFF;}
	.st1{clip-path:url(#SVGID_2_);}
	.st2{clip-path:url(#SVGID_4_);}
</style>
<g id="Layer_2_1_">
	<g id="camera">
		<path class="st0" d="M431.7,510.1c-94.3,0-170.7-76.4-170.7-170.7s76.4-170.7,170.7-170.7s170.7,76.4,170.7,170.7
			S525.9,510.1,431.7,510.1z M702.2,68H594.4l-42.1-45.8C539.5,8.1,521.3,0,502.2,0H358.3c-19.1,0.1-37.4,8.1-50.4,22.2L266.1,68
			H158.3c-37.5,0.2-67.8,30.5-68,68v407.9c0.2,37.5,30.5,67.8,68,68h543.9c37.5,0,68-30.4,68-68V136C770,98.5,739.7,68.1,702.2,68z
			 M431.7,238.1c-56.4-0.8-102.7,44.3-103.5,100.7c-0.8,56.4,44.3,102.7,100.7,103.5S531.6,398,532.4,341.6c0-0.1,0-0.2,0-0.3
			c0.8-56.2-44.2-102.5-100.4-103.3C431.9,238.1,431.8,238.1,431.7,238.1z"/>
		<g>
			<defs>
				<path id="SVGID_1_" d="M431.7,510.1c-94.3,0-170.7-76.4-170.7-170.7s76.4-170.7,170.7-170.7s170.7,76.4,170.7,170.7
					S525.9,510.1,431.7,510.1z M702.2,68H594.4l-42.1-45.8C539.5,8.1,521.3,0,502.2,0H358.3c-19.1,0.1-37.4,8.1-50.4,22.2L266.1,68
					H158.3c-37.5,0.2-67.8,30.5-68,68v407.9c0.2,37.5,30.5,67.8,68,68h543.9c37.5,0,68-30.4,68-68V136C770,98.5,739.7,68.1,702.2,68
					z M431.7,238.1c-56.4-0.8-102.7,44.3-103.5,100.7c-0.8,56.4,44.3,102.7,100.7,103.5S531.6,398,532.4,341.6c0-0.1,0-0.2,0-0.3
					c0.8-56.2-44.2-102.5-100.4-103.3C431.9,238.1,431.8,238.1,431.7,238.1z"/>
			</defs>
			<clipPath id="SVGID_2_">
				<use xlink:href="#SVGID_1_"  style="overflow:visible;"/>
			</clipPath>
			<g class="st1">
				<rect x="-18931.5" y="-10216.3" class="st0" width="24478.6" height="17406.9"/>
				<g>
					<defs>
						<rect id="SVGID_3_" x="-18931.5" y="-10216.3" width="24478.6" height="17406.9"/>
					</defs>
					<clipPath id="SVGID_4_">
						<use xlink:href="#SVGID_3_"  style="overflow:visible;"/>
					</clipPath>
					<g class="st2">
						<rect x="5.2" y="-84.8" class="st0" width="850" height="782"/>
					</g>
				</g>
			</g>
		</g>
	</g>
</g>
</svg>
