<svg xmlns="http://www.w3.org/2000/svg" xmlns:xlink="http://www.w3.org/1999/xlink" viewBox="0 0 48 48"><defs><style>.cls-1{fill:none;}.cls-2{fill:#dd4040;}.cls-3{clip-path:url(#clip-path);}.cls-4{clip-path:url(#clip-path-2);}.cls-5{fill:#fff;}</style><clipPath id="clip-path"><path class="cls-1" d="M24,29.86a6,6,0,1,1,6-6A6,6,0,0,1,24,29.86Zm9.56-15.53H29.77l-1.48-1.62a2.37,2.37,0,0,0-1.76-.77H21.47a2.41,2.41,0,0,0-1.77.77l-1.47,1.62H14.44a2.39,2.39,0,0,0-2.39,2.39V31.06a2.4,2.4,0,0,0,2.39,2.39H33.56A2.4,2.4,0,0,0,36,31.06V16.72A2.39,2.39,0,0,0,33.56,14.33ZM24,20.3a3.59,3.59,0,1,0,3.59,3.59A3.59,3.59,0,0,0,24,20.3Z"/></clipPath><clipPath id="clip-path-2"><rect class="cls-1" x="-656.62" y="-347.2" width="860.49" height="611.9"/></clipPath></defs><g id="Layer_2" data-name="Layer 2"><circle class="cls-2" cx="24" cy="24" r="23.31"/><g class="cls-3"><g class="cls-4"><rect class="cls-5" x="9.06" y="8.95" width="29.88" height="27.49"/></g></g></g></svg>