<svg xmlns="http://www.w3.org/2000/svg" viewBox="0 0 26.13 25.18"><defs><style>.cls-1,.cls-3{fill:#f8fefc;}.cls-1,.cls-2{stroke:#f8fefc;stroke-linejoin:round;}.cls-2{fill:none;stroke-linecap:round;stroke-width:2px;}</style></defs><g id="Layer_2" data-name="Layer 2"><g id="lights"><rect class="cls-1" x="12.04" y="3.73" width="1.37" height="1.37" transform="translate(25.95 1.87) rotate(150)"/><rect class="cls-1" x="20.67" y="10.68" width="1.37" height="1.37" transform="translate(44.35 18.85) rotate(170)"/><rect class="cls-1" x="17.45" y="1.32" width="1.08" height="1.08" transform="translate(30.97 -10.72) rotate(130)"/><path class="cls-2" d="M13.84,11c-.25-1.72-.33-3.5.37-3.8,1.21-.53,3.19,2.18,4,1.72s-.56-3,.49-3.89c.75-.67,2.75-.83,4.44,0"/><path class="cls-2" d="M8.69,7.37C7,5.08,7.18,4.46,7.23,4.18c.16-.91,1.54-.58,2-1S9.45,2.37,8.52,1"/><path class="cls-2" d="M16.86,15.42a3.44,3.44,0,0,1,3.08-.34c.75.37.66,1.08,1.21,1.22.72.19,1.4-1.7,2.43-1.64a2.6,2.6,0,0,1,1.55,1.13"/><path class="cls-3" d="M12.35,12.12C9.06,9,5.16,7.2,4.19,10.32L0,24.48a.54.54,0,0,0,.71.66l13.53-4.92C17.25,19.29,15.41,15.33,12.35,12.12Zm1.8,6.72c-.8.8-3.32-.42-5.62-2.73S5,11.29,5.8,10.48s3.32.42,5.63,2.73S15,18,14.15,18.84Z"/></g></g></svg>