<svg xmlns="http://www.w3.org/2000/svg" viewBox="0 0 23.07 18.99"><defs><style>.cls-1{fill:#f8fefc;}</style></defs><g id="Layer_2" data-name="Layer 2"><g id="AI"><path class="cls-1" d="M4.32,16a.92.92,0,0,1-.87-.63c0-.11-.09-.24-.15-.39-.36-.84-1.11-2.59.42-3.62l.51-.32C5.51,10.26,6,9.86,5.47,8.72A2.32,2.32,0,0,0,3.93,7.44a1.72,1.72,0,0,0-1.42.17,2.48,2.48,0,0,0-.69,1.86v.11a.93.93,0,0,1-1,.84A.91.91,0,0,1,0,9.48,4.1,4.1,0,0,1,1.41,6.15a3.52,3.52,0,0,1,3-.47A4.13,4.13,0,0,1,7.14,8c1.14,2.69-.88,3.93-2,4.59l-.44.28c-.21.14-.15.49.23,1.4.09.2.16.38.21.53A.91.91,0,0,1,4.6,16,.92.92,0,0,1,4.32,16Z"/><ellipse class="cls-1" cx="5.15" cy="17.33" rx="0.4" ry="0.36"/><path class="cls-1" d="M5.15,18.3a1,1,0,1,1,0-1.93,1,1,0,1,1,0,1.93Zm0-1.22a.23.23,0,0,0-.21.25.21.21,0,1,0,.41,0A.23.23,0,0,0,5.15,17.08Z"/><path class="cls-1" d="M10.42,13.76h-.07a.91.91,0,0,1-.84-1c0-.15,0-.33,0-.54.05-1.58.15-4.52,2.31-4.94,1.34-.27,3-1,3.13-2.81a2.42,2.42,0,0,0-.72-1.66,3,3,0,0,0-2.1-1h0A3,3,0,0,0,9.31,3.39a.92.92,0,0,1-1.21.45.91.91,0,0,1-.45-1.2A4.84,4.84,0,0,1,12.12,0h0A4.75,4.75,0,0,1,15.6,1.62a4.11,4.11,0,0,1,1.18,3.05C16.57,7,14.9,8.56,12.2,9.09c-.75.15-.82,2.46-.85,3.22,0,.24,0,.44,0,.61A.91.91,0,0,1,10.42,13.76Z"/><ellipse class="cls-1" cx="10.35" cy="15.61" rx="0.52" ry="0.51" transform="translate(-7.88 19.91) rotate(-69.71)"/><path class="cls-1" d="M10.35,16.74a1.07,1.07,0,0,1-.39-.07,1.12,1.12,0,0,1-.65-1.44A1.11,1.11,0,1,1,11.4,16,1.12,1.12,0,0,1,10.35,16.74Zm-.09-1.16a.08.08,0,0,0,.06.11.1.1,0,0,0,.13,0,.1.1,0,0,0-.07-.12.09.09,0,0,0-.12.05Z"/><path class="cls-1" d="M17,16.3a.84.84,0,0,1-.27,0,.91.91,0,0,1-.6-1.14A3,3,0,0,1,18.2,13.2a3.27,3.27,0,0,1,.85,0c1.28.06,1.92-.07,2.12-.93a2.18,2.18,0,0,0-.29-1.86,1.1,1.1,0,0,0-.82-.44,2,2,0,0,0-1.6.56l-.07.07a.91.91,0,0,1-1.33-1.24,3.8,3.8,0,0,1,3-1.21A2.86,2.86,0,0,1,22.3,9.24a4,4,0,0,1,.65,3.4C22.37,15.12,19.9,15,19,15h-.37a1.18,1.18,0,0,0-.75.69A.91.91,0,0,1,17,16.3Z"/><ellipse class="cls-1" cx="16.25" cy="18.03" rx="0.29" ry="0.41" transform="translate(-8.01 18.89) rotate(-49.99)"/><path class="cls-1" d="M16.37,19a1.08,1.08,0,0,1-.7-.27,1.13,1.13,0,0,1-.39-.72.85.85,0,0,1,.19-.62,1,1,0,0,1,1.36,0,1.07,1.07,0,0,1,.36.56.84.84,0,0,1-.16.78h0A.85.85,0,0,1,16.37,19Zm.2-.69Zm-.47-.39a.35.35,0,0,0-.08.3.15.15,0,0,0,0,.07.32.32,0,0,0,.35-.12h0Zm.27-.14a.39.39,0,0,0-.27.14l.3.25a.32.32,0,0,0,.09-.26c0-.06,0-.1,0-.11A.13.13,0,0,0,16.37,17.77Z"/></g></g></svg>