<svg xmlns="http://www.w3.org/2000/svg" viewBox="0 0 22.44 21.39"><defs><style>.cls-1{fill:#f8fefc;}</style></defs><g id="Layer_2" data-name="Layer 2"><g id="AI"><path class="cls-1" d="M6.39,21.14l3.36-3.48a.82.82,0,0,0-.59-1.38H5a.81.81,0,0,0-.79,1L5,20.76A.81.81,0,0,0,6.39,21.14Z"/><path class="cls-1" d="M20.61,0H1.83A1.83,1.83,0,0,0,0,1.83v14a1.83,1.83,0,0,0,1.83,1.83H20.61a1.83,1.83,0,0,0,1.83-1.83v-14A1.83,1.83,0,0,0,20.61,0ZM4.49,3H9.76L9.54,4.25H4.28ZM3.92,6.32h6.44l-.21,1.22H3.7ZM11,14.1H2.55l.2-1.22h8.42Zm0-3.28H3.12L3.34,9.6h7.83Zm9.36-6.59-.17,1H18.93l.18-1H16.94l-1.53,8.65h.86l-.22,1.22H12.91l.22-1.22H14l1.52-8.65H13.31l-.17,1H11.92l.38-2.16h0V3h8.2Z"/></g></g></svg>