<svg xmlns="http://www.w3.org/2000/svg" viewBox="0 0 26.69 26.21"><defs><style>.cls-1{fill:#f8fefc;}</style></defs><g id="Layer_2" data-name="Layer 2"><g id="camera"><path class="cls-1" d="M14.7,14.66a6,6,0,0,1-3.47,1,5.93,5.93,0,0,1-3.47-1,7.22,7.22,0,0,0-3.19,3.71A10,10,0,0,0,11,21.17,9.89,9.89,0,0,0,18,18.59,7.25,7.25,0,0,0,14.7,14.66Z"/><circle class="cls-1" cx="11.23" cy="9.58" r="5.25"/><path class="cls-1" d="M3.3,3.3a11.26,11.26,0,1,0,15.93,0A11.26,11.26,0,0,0,3.3,3.3ZM17.9,17.9a9.38,9.38,0,1,1,0-13.27A9.39,9.39,0,0,1,17.9,17.9Z"/><rect class="cls-1" x="21.16" y="16.95" width="2.74" height="10.2" rx="1" transform="translate(-8.99 22.39) rotate(-45)"/></g></g></svg>