<svg xmlns="http://www.w3.org/2000/svg" viewBox="0 0 18.04 17.34"><defs><style>.cls-1{fill:#fff;}</style></defs><g id="Layer_2" data-name="Layer 2"><g id="AI"><path class="cls-1" d="M5.25,15.54c-.26,0-.51,0-.76,0C2.26,15.36.74,14.47.2,13s0-3.11,1.61-4.69A15.39,15.39,0,0,1,7.26,5,15.33,15.33,0,0,1,13.55,4c2.23.16,3.75,1,4.29,2.49h0c.54,1.45,0,3.12-1.61,4.7a15.59,15.59,0,0,1-5.45,3.31A16.25,16.25,0,0,1,5.25,15.54ZM12.8,6.63a13.52,13.52,0,0,0-4.6.92,12.83,12.83,0,0,0-4.48,2.69c-.84.84-1.1,1.54-1,1.84s.77.66,1.95.74a13,13,0,0,0,5.16-.89,13.14,13.14,0,0,0,4.48-2.69c.84-.84,1.1-1.55,1-1.85h0c-.11-.29-.77-.65-2-.74Z"/><path class="cls-1" d="M8.89,10.32a1.34,1.34,0,0,1-1.21-.76L4,1.91A1.33,1.33,0,0,1,4.67.13,1.32,1.32,0,0,1,6.44.76l3.65,7.65a1.33,1.33,0,0,1-.63,1.78A1.44,1.44,0,0,1,8.89,10.32Z"/><path class="cls-1" d="M12.36,17.34a1.33,1.33,0,0,1-1.22-.78L9.89,13.8A1.35,1.35,0,0,1,10.56,12a1.33,1.33,0,0,1,1.76.67l1.25,2.76a1.32,1.32,0,0,1-.67,1.76A1.29,1.29,0,0,1,12.36,17.34Z"/></g></g></svg>