<svg xmlns="http://www.w3.org/2000/svg" viewBox="0 0 38.85 7.2"><defs><style>.cls-1{fill:#fff;}</style></defs><g id="Layer_2" data-name="Layer 2"><g id="AI"><polygon class="cls-1" points="0 1 2.03 4.18 3.75 1.49 0 1"/><polygon class="cls-1" points="38.85 1 36.82 4.18 35.1 1.49 38.85 1"/><path class="cls-1" d="M26.13,3a8.2,8.2,0,0,1,7.66,0A9.09,9.09,0,0,0,30,2,9.09,9.09,0,0,0,26.13,3Z"/><path class="cls-1" d="M30,0C25.6,0,22,2.6,22,5.79v.4c0,.73.18,1,.52,1C23.71,7.2,26.6,4,30,4s6.25,3.18,7.4,3.18c.34,0,.53-.28.53-1v-.4C37.89,2.6,34.32,0,30,0Z"/><path class="cls-1" d="M11.31,2.58A7.35,7.35,0,0,0,8.55,2a7.39,7.39,0,0,0-2.76.56,6.86,6.86,0,0,1,5.52,0Z"/><path class="cls-1" d="M8.55,0c-4,0-7.3,2.6-7.3,5.79v.4c0,.73.18,1,.49,1C2.8,7.2,5.46,4,8.55,4S14.31,7.2,15.36,7.2c.32,0,.49-.28.49-1v-.4C15.85,2.6,12.57,0,8.55,0Z"/></g></g></svg>