<svg xmlns="http://www.w3.org/2000/svg" viewBox="0 0 29.14 22.9"><defs><style>.cls-1{fill:#fff;}</style></defs><g id="Layer_2" data-name="Layer 2"><g id="AI"><circle class="cls-1" cx="14.61" cy="14.42" r="4.06"/><path class="cls-1" d="M14.7,5.19a9.51,9.51,0,0,1,6.87,3,1.53,1.53,0,0,1-2.32,2A6.32,6.32,0,0,0,14.7,8.24a6.47,6.47,0,0,0-4.6,1.92,1.53,1.53,0,0,1-2.3-2A9.62,9.62,0,0,1,14.7,5.19Z"/><path class="cls-1" d="M14.82,0A16.76,16.76,0,0,1,25.2,3.89a1.53,1.53,0,0,1-2,2.27,13.85,13.85,0,0,0-8.34-3.11,16.44,16.44,0,0,0-9,3.18A1.53,1.53,0,0,1,4,3.83,19.42,19.42,0,0,1,14.82,0Z"/><path class="cls-1" d="M1.15,20.61H28a1.15,1.15,0,1,1,0,2.29H1.15a1.15,1.15,0,1,1,0-2.29Z"/></g></g></svg>