<svg xmlns="http://www.w3.org/2000/svg" viewBox="0 0 16.55 23.62"><defs><style>.cls-1{fill:#f8fefc;}</style></defs><g id="Layer_2" data-name="Layer 2"><g id="camera"><rect class="cls-1" x="3.69" y="15.56" width="8.91" height="2.49" rx="1.25"/><rect class="cls-1" x="3.69" y="17.63" width="8.91" height="2.49" rx="1.25"/><path class="cls-1" d="M4.23,19.72H12a0,0,0,0,1,0,0v.61a1.88,1.88,0,0,1-1.88,1.88h-4a1.88,1.88,0,0,1-1.88-1.88v-.61A0,0,0,0,1,4.23,19.72Z"/><path class="cls-1" d="M7,21.13H9.18a.92.92,0,0,1,.92.92v0a1.58,1.58,0,0,1-1.58,1.58H7.66A1.58,1.58,0,0,1,6.08,22v0A.92.92,0,0,1,7,21.13Z"/><path class="cls-1" d="M12.45,16H9.54A7.78,7.78,0,0,1,12,10.39c.94-1.05,1.62-1.81,1.62-3.25,0-3.48-3.87-4.24-5.37-4.24S2.9,3.66,2.9,7.14c0,1.44.68,2.2,1.62,3.25A7.75,7.75,0,0,1,7,16H4.1c0-1.68-.77-2.54-1.74-3.63A7.33,7.33,0,0,1,0,7.14C0,2.5,4.26,0,8.27,0s8.28,2.5,8.28,7.14a7.33,7.33,0,0,1-2.36,5.19C13.22,13.42,12.45,14.28,12.45,16Z"/></g></g></svg>