<svg xmlns="http://www.w3.org/2000/svg" viewBox="0 0 20.46 20.99"><defs><style>.cls-1{fill:#f8fefc;}</style></defs><g id="Layer_2" data-name="Layer 2"><g id="AI"><path class="cls-1" d="M19.27,0,8,2.78a.76.76,0,0,0-.64.69v12a8.15,8.15,0,0,0-2.86-.6,5.33,5.33,0,0,0-3.27.93A2.74,2.74,0,0,0,0,18.12a2.5,2.5,0,0,0,1,2.07,4.6,4.6,0,0,0,2.84.8,7.45,7.45,0,0,0,2.79-.52,3.54,3.54,0,0,0,1.81-1.39A4.71,4.71,0,0,0,9,16.65V6.4a.76.76,0,0,1,.65-.69L17.6,3.77c.59-.14,1.19.2,1.19.69v8.36a13.37,13.37,0,0,0-1.64-.46A5.71,5.71,0,0,0,16,12.27a5.4,5.4,0,0,0-3.28.93,2.74,2.74,0,0,0-1.26,2.22,2.5,2.5,0,0,0,1.06,2.09,4.62,4.62,0,0,0,2.86.81,7.15,7.15,0,0,0,2.81-.53,3.78,3.78,0,0,0,1.75-1.34A4.53,4.53,0,0,0,20.46,14V.72C20.46.24,19.86-.11,19.27,0Z"/></g></g></svg>