<svg xmlns="http://www.w3.org/2000/svg" viewBox="0 0 22.57 22.36"><defs><style>.cls-1{fill:#f8fefc;}</style></defs><g id="Layer_2" data-name="Layer 2"><g id="AI"><path class="cls-1" d="M11.27,22.36c-.41,0-.58-.35-.83-.86-.41-.84-1.17-2.38-2.65-2.8a10.5,10.5,0,0,0-4.27.88c-.94.35-1.38.5-1.73.25-.54-.39-.19-.91.74-2.28.56-.83,1.89-2.78,1.74-3.26-.36-.94-1.85-1.53-2.84-1.91S0,11.82,0,11.27s.54-.7,1.5-1,2.81-.78,3-1.6c.28-1.25-1.32-3.75-2-4.81-.51-.8-.77-1.2-.31-1.52s.57-.07,1,.16A8.85,8.85,0,0,0,8.42,3.7c1.24-.34,2.17-1.95,2.67-2.81.36-.61.52-.89.9-.89s.55.28.93,1c.48.87,1.39,2.47,2.45,2.86.66.23,2.72-.54,3.82-1a12.63,12.63,0,0,1,1.47-.5l.12-.19.89.48-.14.29a5.68,5.68,0,0,1-1,1.78c-.61.9-2,3-1.91,3.53.21.76,1.58,1.39,2.49,1.8s1.47.67,1.47,1.22-.32.61-1,1.07-2.09,1.38-2.19,2.22a9.53,9.53,0,0,0,.81,3.26c.43,1.16.55,1.54.39,1.88l-.1.2-.25.11c-.29.09-.62,0-1.73-.36a11.52,11.52,0,0,0-3.65-.79c-1.29.18-2.1,1.63-2.58,2.5-.35.62-.56,1-1,1ZM7.34,17.61a4,4,0,0,1,.6,0H8a5.54,5.54,0,0,1,3.29,3.21l0,0c.58-1,1.55-2.78,3.36-3a11.52,11.52,0,0,1,4.12.83l.6.18c-.07-.2-.15-.43-.23-.63a9.75,9.75,0,0,1-.87-3.76c.17-1.33,1.67-2.32,2.67-3l.25-.16L20.66,11c-1.15-.53-2.73-1.25-3.08-2.49-.25-.91.7-2.4,2.06-4.41.09-.12.18-.26.27-.4l-.34.14c-1.93.72-3.61,1.3-4.56.95-1.43-.51-2.42-2.27-3-3.33h0c-.59,1-1.67,2.84-3.32,3.27H8.59A9.21,9.21,0,0,1,3.82,4c.89,1.43,2,3.49,1.71,4.92s-2.38,2-3.74,2.38l-.08,0,.11,0c1.16.45,2.91,1.14,3.44,2.51.35.89-.55,2.32-1.85,4.25l-.31.45.06,0A12.66,12.66,0,0,1,7.34,17.61Z"/><rect class="cls-1" x="10.22" y="5.34" width="2.12" height="8.53" rx="0.92"/><circle class="cls-1" cx="11.28" cy="15.97" r="1.04"/></g></g></svg>