<svg xmlns="http://www.w3.org/2000/svg" viewBox="0 0 32.56 19.68"><defs><style>.cls-1{fill:#fff;}</style></defs><g id="Layer_2" data-name="Layer 2"><g id="AI"><path class="cls-1" d="M.51,0s-.65,2.27.63,3.59L3.39,1.2A2.94,2.94,0,0,1,.51,0Z"/><path class="cls-1" d="M31.94,0s.65,2.27-.62,3.59L29.06,1.2A2.93,2.93,0,0,0,31.94,0Z"/><path class="cls-1" d="M7.74,17.52c-3.21,0-5.82-3.06-5.82-6.83S4.53,3.85,7.74,3.85a5.67,5.67,0,0,1,4.93,3.23c-.34-3.9-3-6.93-6.32-6.93C2.85.15,0,3.63,0,7.91v4.15c.06,4.22,2.88,7.62,6.35,7.62,2.56,0,4.77-1.85,5.78-4.51A5.49,5.49,0,0,1,7.74,17.52Z"/><path class="cls-1" d="M26.21.15c-3.46,0-6.27,3.37-6.35,7.57A5.82,5.82,0,0,1,25.1,3.85c3.21,0,5.81,3.06,5.81,6.84s-2.6,6.83-5.81,6.83a5.68,5.68,0,0,1-4.94-3.22c.82,3.12,3.22,5.38,6.05,5.38,3.46,0,6.28-3.39,6.35-7.6V7.91C32.56,3.63,29.72.15,26.21.15Z"/><path class="cls-1" d="M9.3,6c.22.64-1.14,1.06-2.53,1.55S4.25,8.61,4,8,4.56,5.76,6,5.27,9.07,5.39,9.3,6Z"/><path class="cls-1" d="M26.68,6c.23.64-1.14,1.06-2.53,1.55s-2.52,1-2.75.4.55-2.21,1.93-2.7S26.45,5.39,26.68,6Z"/></g></g></svg>