<svg xmlns="http://www.w3.org/2000/svg" viewBox="0 0 22.35 15.94"><defs><style>.cls-1{fill:#f8fefc;}</style></defs><g id="Layer_2" data-name="Layer 2"><g id="lights"><path class="cls-1" d="M19.72,11V9.82h1.45V6.66H19.72V5.48h2a.58.58,0,0,1,.59.59v4.34a.58.58,0,0,1-.59.59Z"/><path class="cls-1" d="M0,15.35V.59A.58.58,0,0,1,.59,0H19.72a.59.59,0,0,1,.59.59V15.35a.59.59,0,0,1-.59.59H.59A.58.58,0,0,1,0,15.35ZM1.18,1.18V14.76h18V1.18Z"/><path class="cls-1" d="M15.14.64H.48V15.3H15.14ZM12.56,4.46A1.27,1.27,0,1,1,11.3,3.2,1.26,1.26,0,0,1,12.56,4.46ZM3.69,3.64l.09-.09A.89.89,0,0,1,5,3.55l7.18,7.18a.89.89,0,0,1,0,1.25l-.1.09a.88.88,0,0,1-1.25,0L3.69,4.89A.88.88,0,0,1,3.69,3.64ZM3.6,11.48a1.27,1.27,0,1,1,1.26,1.27A1.26,1.26,0,0,1,3.6,11.48Z"/></g></g></svg>