<svg xmlns="http://www.w3.org/2000/svg" viewBox="0 0 25.5 27.27"><defs><style>.cls-1{fill:#f8fefc;}</style></defs><g id="Layer_2" data-name="Layer 2"><g id="AI"><path class="cls-1" d="M12.75,12.51a1,1,0,0,1-.44-.1L.65,7.25a1.07,1.07,0,0,1-.65-1,1.09,1.09,0,0,1,.65-1L12.31.09a1.12,1.12,0,0,1,.88,0L24.85,5.25a1.11,1.11,0,0,1,.65,1,1.09,1.09,0,0,1-.65,1L13.19,12.41A1,1,0,0,1,12.75,12.51Zm-9-6.26,9,4,9-4-9-4Z"/><path class="cls-1" d="M12.75,27.27a1.09,1.09,0,0,1-.46-.1L.66,21.85a1.09,1.09,0,0,1-.64-1L0,6.26a1.12,1.12,0,0,1,.5-.93,1.09,1.09,0,0,1,1.05-.07l11.64,5.32a1.11,1.11,0,0,1,.64,1V26.18a1.1,1.1,0,0,1-.5.92A1.12,1.12,0,0,1,12.75,27.27ZM2.2,20.15l9.45,4.33V12.28L2.19,8Z"/><path class="cls-1" d="M12.75,27.27a1.12,1.12,0,0,1-.59-.17,1.1,1.1,0,0,1-.5-.92V11.57a1.11,1.11,0,0,1,.64-1L24,5.26a1.09,1.09,0,0,1,1.55,1l0,14.6a1.09,1.09,0,0,1-.64,1L13.2,27.17A1,1,0,0,1,12.75,27.27Zm1.11-15,0,12.2,9.46-4.33V8Z"/></g></g></svg>