<svg xmlns="http://www.w3.org/2000/svg" viewBox="0 0 24.07 23.09"><defs><style>.cls-1{fill:none;}.cls-2{fill:#f8fefc;}</style></defs><g id="Layer_2" data-name="Layer 2"><g id="camera"><path class="cls-1" d="M2.52,18.4A2.55,2.55,0,0,0,5.07,21H11V12.5H2.52Zm1.81-4.09H9.16v4.83H5.6a1.27,1.27,0,0,1-1.27-1.27Z"/><path class="cls-1" d="M2.52,4.61v5.9H11V2.06H5.07A2.55,2.55,0,0,0,2.52,4.61Zm6.64-.74V8.7H4.33V5.14A1.27,1.27,0,0,1,5.6,3.87Z"/><rect class="cls-1" x="5.94" y="5.48" width="1.61" height="1.61"/><rect class="cls-1" x="16.56" y="15.92" width="1.61" height="1.61"/><rect class="cls-1" x="5.94" y="15.92" width="1.61" height="1.61"/><polygon class="cls-1" points="14.95 17.53 13.14 17.53 13.14 20.95 14.95 20.95 14.95 19.14 14.95 19.14 14.95 17.53"/><polygon class="cls-1" points="14.95 14.31 18.17 14.31 18.17 12.5 13.14 12.5 13.14 15.92 14.95 15.92 14.95 14.31"/><rect class="cls-1" x="16.56" y="5.48" width="1.61" height="1.61"/><path class="cls-1" d="M19,2.06h-5.9v8.45h8.45V4.61A2.55,2.55,0,0,0,19,2.06Zm.74,6.64H15V3.87h3.56a1.27,1.27,0,0,1,1.27,1.27Z"/><path class="cls-1" d="M19.78,17.87a1.27,1.27,0,0,1-1.27,1.27h-2V21H19a2.55,2.55,0,0,0,2.55-2.55v-.87H19.78Z"/><polygon class="cls-1" points="19.78 14.31 19.78 14.31 19.78 15.92 21.59 15.92 21.59 12.5 19.78 12.5 19.78 14.31"/><path class="cls-2" d="M18.51,3.87H15V8.7h4.83V5.14A1.27,1.27,0,0,0,18.51,3.87Zm-.34,3.22H16.56V5.48h1.61Z"/><path class="cls-2" d="M4.33,5.14V8.7H9.16V3.87H5.6A1.27,1.27,0,0,0,4.33,5.14Zm1.61.34H7.55V7.09H5.94Z"/><path class="cls-2" d="M5.6,19.14H9.16V14.31H4.33v3.56A1.27,1.27,0,0,0,5.6,19.14Zm.34-3.22H7.55v1.61H5.94Z"/><path class="cls-2" d="M20.31,0H3.75A3.75,3.75,0,0,0,0,3.75V19.34a3.75,3.75,0,0,0,3.75,3.75H20.31a3.75,3.75,0,0,0,3.76-3.75V3.75A3.75,3.75,0,0,0,20.31,0ZM13.14,12.5h5v1.81H15v1.61H13.14Zm5,3.42v1.61H16.56V15.92ZM11,21H5.07A2.55,2.55,0,0,1,2.52,18.4V12.5H11Zm0-10.44H2.52V4.61A2.55,2.55,0,0,1,5.07,2.06H11ZM15,21H13.14V17.53H15v1.61h0Zm6.64-2.55A2.55,2.55,0,0,1,19,21H16.56V19.14h2a1.27,1.27,0,0,0,1.27-1.27v-.34h1.81Zm0-2.48H19.78V14.31h0V12.5h1.81Zm0-5.41H13.14V2.06H19a2.55,2.55,0,0,1,2.55,2.55Z"/></g></g></svg>