<svg xmlns="http://www.w3.org/2000/svg" viewBox="0 0 31.36 15.06"><defs><style>.cls-1{fill:#fff;}</style></defs><g id="Layer_2" data-name="Layer 2"><g id="AI"><path class="cls-1" d="M7.84,12.87C4.58,12.87,2,9.77,2,6A7.7,7.7,0,0,1,3.32,1.5C1.34,1.91,0,3,0,6V7.33c.06,4.28,2.92,7.73,6.44,7.73,2.59,0,4.82-1.88,5.84-4.58A5.53,5.53,0,0,1,7.84,12.87Z"/><path class="cls-1" d="M28.36,1.58A7.71,7.71,0,0,1,29.68,6c0,3.82-2.64,6.92-5.89,6.92a5.76,5.76,0,0,1-5-3.27c.83,3.17,3.26,5.46,6.13,5.46,3.51,0,6.36-3.44,6.43-7.71,0,0,0-1.32,0-1.37C31.36,3.18,30.16,2,28.36,1.58Z"/><path class="cls-1" d="M9.75,1.14c.18.66-1.23,1-2.67,1.36s-2.64.84-2.81.18S5,.49,6.43.11,9.58.48,9.75,1.14Z"/><path class="cls-1" d="M25.73,1.46c.18.66-1.23,1-2.68,1.35s-2.63.84-2.8.18S21,.81,22.42.42,25.56.8,25.73,1.46Z"/></g></g></svg>