<svg xmlns="http://www.w3.org/2000/svg" viewBox="0 0 27.68 27.68"><defs><style>.cls-1{fill:#f8fefc;}</style></defs><g id="Layer_2" data-name="Layer 2"><g id="camera"><path class="cls-1" d="M1.67,26.52a.71.71,0,0,1-.37-.1.73.73,0,0,1-.27-1l5.26-9.16a.74.74,0,0,1,1-.28.75.75,0,0,1,.27,1L2.31,26.15A.74.74,0,0,1,1.67,26.52Z"/><path class="cls-1" d="M9.78,22.07a.74.74,0,0,1-.64-.37L6.4,17a.73.73,0,0,1,1.27-.74L10.41,21a.74.74,0,0,1-.26,1A.86.86,0,0,1,9.78,22.07Z"/><path class="cls-1" d="M9.88,21.87a.73.73,0,0,1-.63-1.1L16,9.26a.74.74,0,1,1,1.27.75l-6.77,11.5A.74.74,0,0,1,9.88,21.87Z"/><path class="cls-1" d="M26.33,26.91a.74.74,0,0,1-.64-.36L16,10a.73.73,0,0,1,.27-1,.72.72,0,0,1,1,.26L27,25.8a.75.75,0,0,1-.26,1A.74.74,0,0,1,26.33,26.91Z"/><path class="cls-1" d="M6.44,10.19A2.16,2.16,0,1,1,8.6,8,2.16,2.16,0,0,1,6.44,10.19ZM6.44,7A1.06,1.06,0,1,0,7.49,8,1.06,1.06,0,0,0,6.44,7Z"/><path class="cls-1" d="M27,27.68H.73A.73.73,0,0,1,0,27V.73A.73.73,0,0,1,.73,0H27a.73.73,0,0,1,.73.73V27A.72.72,0,0,1,27,27.68ZM1.47,26.21H26.21V1.47H1.47Z"/></g></g></svg>