<svg xmlns="http://www.w3.org/2000/svg" xmlns:xlink="http://www.w3.org/1999/xlink" viewBox="0 0 38.23 9.14"><defs><style>.cls-1{fill:none;}.cls-2{fill:#fff;}.cls-3{clip-path:url(#clip-path);}.cls-4{clip-path:url(#clip-path-2);}</style><clipPath id="clip-path"><path class="cls-1" d="M16.39,2c-1.58-3.26-6.5.59-10.95-.05A4.63,4.63,0,0,1,3.55,1.3,5.47,5.47,0,0,1,1.12,2.42,2.66,2.66,0,0,0,1.9.26C1.6-.28.76.14.29.48c0,0-.23,1.24-.24,1.3C-.43,4.47,2.77,8.4,7.17,9s8.41-1.35,9-5.32C16.16,3.64,16.43,2.05,16.39,2Z"/></clipPath><clipPath id="clip-path-2"><path class="cls-1" d="M21.84,2c1.58-3.26,6.51.59,11-.05a4.58,4.58,0,0,0,1.89-.64,5.52,5.52,0,0,0,2.43,1.12A2.69,2.69,0,0,1,36.33.26c.3-.54,1.14-.12,1.62.22,0,0,.23,1.24.24,1.3C38.66,4.47,35.46,8.4,31.06,9s-8.41-1.35-9-5.32C22.08,3.64,21.81,2.05,21.84,2Z"/></clipPath></defs><g id="Layer_2" data-name="Layer 2"><g id="AI"><path class="cls-2" d="M16.39,2a2.48,2.48,0,0,0-.4-.61c-.1,3.92-2.83,7.07-6.2,7.07S3.68,5.28,3.6,1.33l-.05,0A5.47,5.47,0,0,1,1.12,2.42,2.66,2.66,0,0,0,1.9.26C1.6-.28.76.14.29.48c0,0-.23,1.24-.24,1.3C-.43,4.47,2.77,8.4,7.17,9s8.41-1.35,9-5.32C16.16,3.64,16.42,2.05,16.39,2Z"/><path class="cls-2" d="M38.19,1.78c0-.06-.19-1.26-.24-1.3-.48-.34-1.32-.76-1.62-.22a2.69,2.69,0,0,0,.78,2.16A5.52,5.52,0,0,1,34.68,1.3s0,0,0,0c-.09,3.94-2.83,7.11-6.2,7.11s-6.09-3.14-6.19-7.06a2.41,2.41,0,0,0-.4.6c0,.06.24,1.65.25,1.72.56,4,4.58,6,9,5.32S38.66,4.47,38.19,1.78Z"/><g class="cls-3"><path class="cls-2" d="M4.44,1.39a4.85,4.85,0,0,1,3.37.1C8.67,2,8.6,2.53,8,3a2.53,2.53,0,0,1-2.56.19C4.54,2.74,4.17,1.72,4.44,1.39Z"/></g><g class="cls-4"><path class="cls-2" d="M26.92.66a4.88,4.88,0,0,0-3.38.1c-.86.48-.78,1-.14,1.54A2.48,2.48,0,0,0,26,2.49C26.82,2,27.19,1,26.92.66Z"/></g></g></g></svg>