<svg xmlns="http://www.w3.org/2000/svg" viewBox="0 0 25.49 25.49"><defs><style>.cls-1{fill:#f8fefc;}</style></defs><g id="Layer_2" data-name="Layer 2"><g id="camera"><path class="cls-1" d="M25.12,7.1,18.39.37A1.22,1.22,0,0,0,17.5,0H8A1.22,1.22,0,0,0,7.1.37L.37,7.1A1.22,1.22,0,0,0,0,8V17.5a1.22,1.22,0,0,0,.37.89L7.1,25.12a1.22,1.22,0,0,0,.89.37H17.5a1.22,1.22,0,0,0,.89-.37l6.73-6.73a1.22,1.22,0,0,0,.37-.89V8A1.22,1.22,0,0,0,25.12,7.1ZM24.37,17a1.26,1.26,0,0,1-.37.89L17.93,24a1.26,1.26,0,0,1-.89.37H8.45A1.26,1.26,0,0,1,7.56,24L1.49,17.93A1.26,1.26,0,0,1,1.12,17V8.45a1.26,1.26,0,0,1,.37-.89L7.56,1.49a1.26,1.26,0,0,1,.89-.37H17a1.26,1.26,0,0,1,.89.37L24,7.56a1.26,1.26,0,0,1,.37.89Z"/><path class="cls-1" d="M22.57,8.16,17.33,2.92a1.25,1.25,0,0,0-.88-.36H9a1.25,1.25,0,0,0-.88.36L2.92,8.16A1.25,1.25,0,0,0,2.56,9v7.41a1.25,1.25,0,0,0,.36.88l5.24,5.24a1.25,1.25,0,0,0,.88.36h7.41a1.25,1.25,0,0,0,.88-.36l5.24-5.24a1.25,1.25,0,0,0,.36-.88V9A1.25,1.25,0,0,0,22.57,8.16Z"/></g></g></svg>