<svg xmlns="http://www.w3.org/2000/svg" viewBox="0 0 26.87 26.76"><defs><style>.cls-1{fill:#f8fefc;}</style></defs><g id="Layer_2" data-name="Layer 2"><g id="camera"><rect class="cls-1" width="1.82" height="7.27" rx="0.91"/><rect class="cls-1" x="2.73" y="-2.73" width="1.82" height="7.27" rx="0.91" transform="translate(4.54 -2.73) rotate(90)"/><rect class="cls-1" x="25.05" width="1.82" height="7.27" rx="0.91" transform="translate(51.91 7.27) rotate(-180)"/><rect class="cls-1" x="22.32" y="-2.73" width="1.82" height="7.27" rx="0.91" transform="translate(24.14 -22.32) rotate(90)"/><rect class="cls-1" x="22.32" y="22.22" width="1.82" height="7.27" rx="0.91" transform="translate(-2.62 49.08) rotate(-90)"/><rect class="cls-1" x="25.05" y="19.49" width="1.82" height="7.27" rx="0.91" transform="translate(51.91 46.25) rotate(-180)"/><rect class="cls-1" x="2.76" y="22.22" width="1.82" height="7.27" rx="0.91" transform="translate(-22.18 29.52) rotate(-90)"/><rect class="cls-1" x="0.04" y="19.49" width="1.82" height="7.27" rx="0.91"/><circle class="cls-1" cx="7.3" cy="7.25" r="1.93"/><path class="cls-1" d="M6.77,14.78,3.35,20.7a1,1,0,0,0,.87,1.5h6.84a1,1,0,0,0,.87-1.5L8.5,14.78A1,1,0,0,0,6.77,14.78Z"/><path class="cls-1" d="M15,8.73l-6.92,12A1,1,0,0,0,9,22.2H22.81a1,1,0,0,0,.86-1.5l-6.91-12A1,1,0,0,0,15,8.73Z"/></g></g></svg>