<svg xmlns="http://www.w3.org/2000/svg" viewBox="0 0 22.35 15.94"><defs><style>.cls-1{fill:#f8fefc;}</style></defs><g id="Layer_2" data-name="Layer 2"><g id="sensors"><path class="cls-1" d="M0,15.35V.59A.58.58,0,0,1,.59,0H19.72a.59.59,0,0,1,.59.59V15.35a.59.59,0,0,1-.59.59H.59A.58.58,0,0,1,0,15.35ZM1.18,1.18V14.76h18V1.18Z"/><path class="cls-1" d="M19.72,10.9V9.72h1.45V6.56H19.72V5.38h2a.58.58,0,0,1,.59.59v4.34a.58.58,0,0,1-.59.59Z"/><path class="cls-1" d="M15.14.65H.57V15.41H15.14ZM2.37,7.77c.36-.34,2.83.4,4.28.68.44.09-.23-2.85.14-2.83C9,5.76,13.37,8,13.36,8.36s-3.89-.61-4.68-.85c-.5-.15.08,2.93-.27,2.93C7.84,10.44,1.92,8.2,2.37,7.77Z"/></g></g></svg>